<?xml version="1.0"?>
<svg xmlns="http://www.w3.org/2000/svg" viewBox="0 0 512 512" width="512" height="512"><g id="Outline"><rect x="116.919" y="208" width="86.163" height="16" transform="translate(-99.97 284.348) rotate(-68.201)"/><path d="M123.2,185.6l-32,24a8,8,0,0,0,0,12.8l32,24,9.6-12.8L109.333,216,132.8,198.4Z"/><path d="M196.8,246.4l32-24a8,8,0,0,0,0-12.8l-32-24-9.6,12.8L210.667,216,187.2,233.6Z"/><rect x="48" y="136" width="16" height="16"/><rect x="80" y="136" width="16" height="16"/><rect x="112" y="136" width="16" height="16"/><path d="M447.927,274.16,384,265.059V239.966A79.774,79.774,0,0,0,415.6,184h.4a31.992,31.992,0,0,0,15.473-60,31.995,31.995,0,0,0-7.6-59.019A36.049,36.049,0,0,0,388,32a35.649,35.649,0,0,0-17.15,4.429,39.94,39.94,0,0,0-69.7,0A35.649,35.649,0,0,0,284,32a36.049,36.049,0,0,0-35.875,32.98A32.018,32.018,0,0,0,225.013,104H48a32.036,32.036,0,0,0-32,32V320a32.036,32.036,0,0,0,32,32h84.9l-10.667,32H112a24.114,24.114,0,0,0-24,24,24.027,24.027,0,0,0,24,24h64v24a40.045,40.045,0,0,0,40,40s25.108-.058,25.652-.173l94.239-19.885,94.461,19.886c.542.114,25.648.172,25.648.172a40.045,40.045,0,0,0,40-40V329.6A56.385,56.385,0,0,0,447.927,274.16ZM304,249.316a79.948,79.948,0,0,0,64,0v21.216c-6.286,15.933-20.545,21.655-32,21.655s-25.714-5.722-32-21.655ZM400,176a64,64,0,0,1-128,0v-2.868A31.978,31.978,0,0,0,326.987,160h18.026A31.978,31.978,0,0,0,400,173.132V176ZM240,152a16.019,16.019,0,0,1,16-16v32A16.019,16.019,0,0,1,240,152Zm136-32a32.056,32.056,0,0,0-30.987,24H326.987a31.971,31.971,0,0,0-48.246-18.925l1.983-5.95A30.924,30.924,0,0,0,288,120a32.016,32.016,0,0,0,27.408-15.5,32.029,32.029,0,0,0,41.184,0A32.016,32.016,0,0,0,384,120a30.924,30.924,0,0,0,7.276-.875l1.983,5.95A31.8,31.8,0,0,0,376,120Zm16,32a16,16,0,1,1-16-16A16.019,16.019,0,0,1,392,152Zm-80,0a16,16,0,1,1-16-16A16.019,16.019,0,0,1,312,152Zm104,16V136a16,16,0,0,1,0,32ZM255.614,80.005c.2.017.429.032.681.035a8,8,0,0,0,8.029-9.152l-.051-.342A19.391,19.391,0,0,1,264,68a20.023,20.023,0,0,1,20-20,19.728,19.728,0,0,1,14.781,6.679,8,8,0,0,0,13.766-3.695,23.979,23.979,0,0,1,46.906,0,8,8,0,0,0,13.766,3.7A19.728,19.728,0,0,1,388,48a20.023,20.023,0,0,1,20,20,19.391,19.391,0,0,1-.273,2.546l-.051.342a8,8,0,0,0,1.9,6.428,7.822,7.822,0,0,0,6.126,2.724c.252,0,.478-.017.68-.035A16,16,0,0,1,416,112c-.782,0-8.242-.354-10.167.2l-2.054-6.164A8,8,0,0,0,392.1,101.69,15.715,15.715,0,0,1,384,104a16.019,16.019,0,0,1-16-16,8,8,0,0,0-10.526-7.591l-1.63.542a8,8,0,0,0-4.954,4.736,15.906,15.906,0,0,1-29.78,0,8,8,0,0,0-4.954-4.736l-1.63-.542A8,8,0,0,0,304,88a16.019,16.019,0,0,1-16,16,15.715,15.715,0,0,1-8.1-2.31,8,8,0,0,0-11.675,4.348l-2.054,6.163c-1.924-.554-9.385-.2-10.167-.2a16,16,0,0,1-.386-32ZM32,136a16.019,16.019,0,0,1,16-16H234.868a32.17,32.17,0,0,0,5.659,4A31.992,31.992,0,0,0,256,184h.4a79.766,79.766,0,0,0,31.6,55.97v25.562l-67.779,14.493A55.964,55.964,0,0,0,191.755,296H32Zm0,184v-8H180.93A55.381,55.381,0,0,0,176,334.8V336H48A16.019,16.019,0,0,1,32,320Zm117.766,32H176v32H139.1ZM104,408a7.656,7.656,0,0,1,2.3-5.546c.053-.051.105-.1.156-.155A7.655,7.655,0,0,1,112,400h64v16H112A8.009,8.009,0,0,1,104,408Zm135.165,72H216a24.027,24.027,0,0,1-24-24v-8h29.578l21.984,14.656A8,8,0,0,0,248,464h31.167l17.932,3.775ZM480,456a24.027,24.027,0,0,1-24,24H432.833L281.648,448.172A8.005,8.005,0,0,0,280,448H250.422l-21.985-14.656A8,8,0,0,0,224,432H192V392h30.358l54.491,23.354a8.056,8.056,0,0,0,2.537.623L480,431.408Zm0-40.639-71.937-5.534,27.1-11.6L449.647,392H480ZM480,376H448a8.022,8.022,0,0,0-3.16.65L440,378.725V352H424v33.582l-33.938,14.544-53.943,4.167-54.185-4.168L248,385.582V352H232v26.725l-4.849-2.079A8.01,8.01,0,0,0,224,376H192V334.8a40.314,40.314,0,0,1,31.593-39.137L291.3,281.185a50.5,50.5,0,0,0,89.613-.4l1.954.279v0L445.646,290A40.293,40.293,0,0,1,480,329.6Z"/><path d="M328.934,192H312v16h16.934c10.806,0,21.433-.336,31.587-1l-1.042-15.967C349.671,191.676,339.4,192,328.934,192Z"/></g></svg>
