<?xml version="1.0" encoding="utf-8"?>
<!-- Generator: Adobe Illustrator 16.0.0, SVG Export Plug-In . SVG Version: 6.00 Build 0)  -->
<!DOCTYPE svg PUBLIC "-//W3C//DTD SVG 1.1//EN" "http://www.w3.org/Graphics/SVG/1.1/DTD/svg11.dtd">
<svg version="1.1" id="Layer_1" xmlns="http://www.w3.org/2000/svg" xmlns:xlink="http://www.w3.org/1999/xlink" x="0px" y="0px"
	 width="500px" height="500px" viewBox="0 0 500 500" enable-background="new 0 0 500 500" xml:space="preserve">
<g>
	<defs>
		<rect id="SVGID_1_" width="500" height="500"/>
	</defs>
	<clipPath id="SVGID_2_">
		<use xlink:href="#SVGID_1_"  overflow="visible"/>
	</clipPath>
	<g opacity="0.4" clip-path="url(#SVGID_2_)">
		<g>
			<defs>
				<rect id="SVGID_3_" x="76.115" y="68.765" width="393.677" height="301.403"/>
			</defs>
			<clipPath id="SVGID_4_">
				<use xlink:href="#SVGID_3_"  overflow="visible"/>
			</clipPath>
			<path clip-path="url(#SVGID_4_)" fill="#FFFFFF" d="M253.199,68.765L76.115,254.98l186.284,115.188L469.792,263.57
				C457.588,154.453,365.397,69.521,253.199,68.765"/>
		</g>
	</g>
	<path clip-path="url(#SVGID_2_)" fill="#B7A290" d="M398.752,258.246h46.194c9.128,0,26.749,13.173,16.627,57.794
		c-10.124,44.621-24.746,104.447-24.746,104.447H275.996l36.296-162.241H398.752z"/>
	<path clip-path="url(#SVGID_2_)" fill="#957C6B" d="M385.723,393.257c-2.771,1.078-8,0-8,0c-0.884,7.191-4.005,24.713-4.005,24.713
		h-37.22l23.013-146.896l24.139-12.827h20.333h2.758c-7.513,9.497-20.071,20.122-31.345,27.133
		c-1.073,5.395-4.748,21.688-4.748,21.688c10.147-2.989,43.589-15.274,42.151,9.567C411.36,339.678,402.157,361.611,385.723,393.257
		"/>
	<path clip-path="url(#SVGID_2_)" fill="#957C6B" d="M444.946,258.246c9.128,0,26.749,13.173,16.627,57.794
		c-10.124,44.621-24.746,104.447-24.746,104.447h-40.066c0,0,14.48-61.501,25.891-110.57
		C434.061,260.847,438.755,258.246,444.946,258.246"/>
	<path clip-path="url(#SVGID_2_)" fill="#38302D" d="M383.44,172.603c7.353-0.074,29.122,1.716,32.601,13.663
		c2.551,10.912,1.442,32.749-3.197,47.304c-3.179,8.822-37.895,44.366-51.681,45.958c2.009-16.91,3.382-76.398,3.382-76.398
		L383.44,172.603z"/>
	<path clip-path="url(#SVGID_2_)" fill="#201C1C" d="M361.162,279.527c0.367-3.087,0.713-7.604,1.032-12.908l20.18-35.316
		c1.136-4.775,3.142-12.646,3.146-14.436c6.846,2.246,10.927,14.494,12.977,24.346c3.267,0.5,10.393-2.986,14.348-7.644
		C409.665,242.391,374.949,277.936,361.162,279.527"/>
	<path clip-path="url(#SVGID_2_)" fill="#E0C1AD" d="M326.917,282.438l39.55-12.622l-8.66,40.485
		c-15.987,14.312-23.084,16.521-25.983,14.39c-6.275-3.497-4.047-15.044-1.189-18.958L326.917,282.438z"/>
	<path clip-path="url(#SVGID_2_)" fill="#C08C72" d="M330.781,306.649l-3.864-24.211l39.55-12.622l-1.958,9.151
		C357.49,291.352,344.098,305.722,330.781,306.649"/>
	<path clip-path="url(#SVGID_2_)" fill="#E0C1AD" d="M285.114,210.9c0.927,16.045,0.957,36.039-1.961,53.38
		c5.314,15.834,36.034,30.987,54.166,25.046c16.961-6.566,28.171-15.823,32.852-22.892c5.33,5.952,19.63,4.063,25.83-17.53
		c2.361-9.434-4.83-21.297-20.56-16.506c1.667-8.356-6.265-38.292-6.265-38.292s-45.694-7.271-76.152,0.556
		C287.469,196.922,284.805,204.48,285.114,210.9"/>
	<path clip-path="url(#SVGID_2_)" fill="#B7795F" d="M318.12,258.094c-3.075-3.005-7.487-5.2-11.926-3.496
		c-2.394,0.817,0.527,4.924,0.527,4.924c1.065,1.508,7.982,1.631,11.939,0.551C319.338,259.56,318.12,258.094,318.12,258.094"/>
	<path clip-path="url(#SVGID_2_)" fill="#C08C72" d="M286.21,214.998l-1.081-3.81c-0.006-0.094-0.009-0.194-0.015-0.289
		c-0.31-6.419,2.355-13.979,7.91-16.236c30.458-7.828,76.152-0.557,76.152-0.557s7.932,29.935,6.264,38.292
		c1.284,6.074-4.082,21.796-6.804,23.981c1.13-3.857,1.246-16.351,0.564-22.444c-0.968-7.021-2.77-17.131-4.852-24.751
		c-4.226,1.161-14.317,2.547-27.563,0.788C311.622,203.554,297.006,208.476,286.21,214.998"/>
	<path clip-path="url(#SVGID_2_)" fill="#38302D" d="M380.746,171.849c0.8-6.176,5.771-14.478,5.771-14.478
		c4.247-3.344,20.317-1.185,30.7,8.483c-7.943-2.196-28.599-1.515-34.354,9.387C379.991,175.627,380.746,171.849,380.746,171.849"/>
	<path clip-path="url(#SVGID_2_)" fill="#C08C72" d="M354.28,229.293l-24.625,3.923C330.972,233.607,349.566,235.125,354.28,229.293
		"/>
	<path clip-path="url(#SVGID_2_)" fill="#C08C72" d="M336.251,236.744c0.831,3.043,3.972,4.836,7.017,4.006
		c3.043-0.832,4.835-3.973,4.005-7.017c-0.832-3.043-3.973-4.837-7.017-4.005C337.213,230.56,335.42,233.701,336.251,236.744"/>
	<path clip-path="url(#SVGID_2_)" fill="#38302D" d="M329.655,233.217c0.935-2.28,7.179-5.076,13.912-5.515
		c3.531-0.187,8.736,1.194,10.713,1.591L329.655,233.217z"/>
	<path clip-path="url(#SVGID_2_)" fill="#38302D" d="M334.941,236.008c0.832,3.043,3.973,4.837,7.018,4.006
		c3.041-0.832,4.835-3.973,4.004-7.016c-0.832-3.045-3.973-4.838-7.016-4.006S334.11,232.967,334.941,236.008"/>
	<path clip-path="url(#SVGID_2_)" fill="#C08C72" d="M289.939,228.648c0.313,1.551,1.038,2.91,4.475,4.26
		c2.684,0.967,10.589,2.994,10.589,2.994L289.939,228.648z"/>
	<path clip-path="url(#SVGID_2_)" fill="#C08C72" d="M294.934,235.33c0.66,2.424,2.603,4.006,4.337,3.533
		c1.734-0.475,2.603-2.824,1.939-5.248c-0.662-2.426-2.604-4.008-4.338-3.533C295.139,230.555,294.27,232.904,294.934,235.33"/>
	<path clip-path="url(#SVGID_2_)" fill="#38302D" d="M289.939,228.648c7.138-4.492,11.904,4.277,15.063,7.254L289.939,228.648z"/>
	<path clip-path="url(#SVGID_2_)" fill="#38302D" d="M294.031,234.441c0.662,2.424,2.604,4.006,4.338,3.533
		c1.733-0.475,2.601-2.824,1.939-5.248c-0.662-2.426-2.604-4.008-4.34-3.535C294.236,229.666,293.368,232.016,294.031,234.441"/>
	<path clip-path="url(#SVGID_2_)" fill="#C08C72" d="M392.719,250.577c0.695-4.311,0.854-11.913-14.441-11.257
		c-1.142,1.282-2.926,5.262-2.926,5.262c3.961-0.578,13.138-3.086,15.253,1.453c0.528,1.479,1.09,4.446,1.195,6.665
		C392.371,252.045,392.719,250.577,392.719,250.577"/>
	<path clip-path="url(#SVGID_2_)" fill="#C08C72" d="M377.061,244.154c1.318,1.012,7.5,7.527-2.456,10.027
		c3.702,0.42,12.416-2.564,7.042-10.82C379.711,242.615,377.061,244.154,377.061,244.154"/>
	<g clip-path="url(#SVGID_2_)">
		<g>
			<defs>
				<rect id="SVGID_5_" x="306.206" y="240.467" width="7.368" height="11.036"/>
			</defs>
			<clipPath id="SVGID_6_">
				<use xlink:href="#SVGID_5_"  overflow="visible"/>
			</clipPath>
			<path clip-path="url(#SVGID_6_)" fill="#FFFFFF" d="M310.891,242.371c-1.201,2.208-4.373,7.459-4.681,8.074
				c-0.195,0.847,5.917,1.72,6.563,0.322c0.768-1.742,0.844-9.014,0.784-9.775C313.457,239.909,311.911,240.566,310.891,242.371"/>
		</g>
	</g>
	<path clip-path="url(#SVGID_2_)" fill="#F1E3D9" d="M330.113,230.366c0.468-0.897,1.212-1.62,1.966-2.26
		c0.761-0.648,1.59-1.2,2.438-1.712c0.861-0.495,1.745-0.947,2.67-1.311c0.923-0.365,1.882-0.666,2.88-0.785
		c-1.698,1.041-3.356,2.004-5.023,2.988l-2.493,1.475C331.725,229.27,330.903,229.758,330.113,230.366"/>
	<path clip-path="url(#SVGID_2_)" fill="#F1E3D9" d="M305.479,234.838c-0.322-0.635-0.722-1.195-1.142-1.748
		c-0.43-0.544-0.861-1.085-1.318-1.605c-0.447-0.529-0.918-1.037-1.387-1.551c-0.475-0.511-0.969-0.998-1.486-1.488
		c0.657,0.285,1.249,0.701,1.801,1.15c0.557,0.449,1.056,0.963,1.526,1.498c0.459,0.547,0.894,1.116,1.246,1.742
		C305.069,233.455,305.393,234.122,305.479,234.838"/>
	<path clip-path="url(#SVGID_2_)" fill="#C08C72" d="M285.464,241.154c-0.043,1.141-0.262,4.518-0.37,6.152
		c2.066,1.78,4.675,3.133,7.973,3.784c2.323,0.31,4.64,0.177,6.796-0.413c4.495-1.228,8.296-4.447,10.059-9.75
		c0.574-1.271,1.667-2.051,3.376-2.365c3.688-0.668,8.093,1.098,8.793,1.859l0.609,0.662c3.769,9.691,12.783,13.453,23.912,11.801
		c0.545-0.121,1.073-0.252,1.589-0.393c11.837-3.234,15.72-11.662,16.623-19.027c1.583-0.119,3.549-0.313,4.21-0.559
		c1.095-0.299,4.451-6.195,3.174-8.871c-2.323-1.221-11.667-3.865-18.477-4.297l0.014,0.008c-6.103-0.87-11.675-0.268-16.501,1.051
		c-7.601,2.077-13.357,5.904-16.45,8.457c-0.02,2.119,0.128,4.078,0.397,5.91c-2.616-0.906-5.882-1.373-8.647-0.877
		c-0.562,0.102-1.084,0.251-1.589,0.422c0.043-1.498-0.023-3.091-0.242-4.801c-3.702-3.736-12.243-10.266-22.962-8.873
		c-0.219,1.578-0.512,3.695-0.621,4.486c8.952-1.732,16.245,3.549,19.43,6.424c0.215,2.77-0.015,5.215-0.646,7.293
		c-0.03,0.07-0.069,0.134-0.098,0.205l-0.813,2.013l0.013,0.005c-1.33,2.52-3.451,4.252-6.296,5.028
		c-1.551,0.423-3.213,0.53-4.943,0.315C290.143,246.057,287.405,244.188,285.464,241.154 M325.171,231.355
		c2.613-1.898,7.216-4.73,13.217-6.371c7.332-2.002,14.744-1.713,22.067,0.856c0.332,2.509,0.547,6.657-0.714,10.823
		c-1.813,5.996-5.963,9.803-12.686,11.641c-0.401,0.109-0.812,0.211-1.233,0.307c-4.482,0.645-10.689,0.578-15.122-3.277
		c-1.766-1.537-3.114-3.613-4.05-6.139l0.108-0.098l-0.224-0.246C325.771,236.668,325.301,234.166,325.171,231.355"/>
	<path clip-path="url(#SVGID_2_)" fill="#C08C72" d="M327.731,219.863c-1.185,0.335-2.515-0.145-3.033-1.259
		c-1.043-2.243-0.477-5.664,2.854-7.101c5.395-2.363,28.903-4.33,40.935,12.258C364.162,221.371,350.209,213.498,327.731,219.863"/>
	<path clip-path="url(#SVGID_2_)" fill="#38302D" d="M325.803,218.792c-0.912,0.308-1.98,0.071-2.53-0.719
		c-1.486-2.136-1.282-6.003,2.235-7.712c5.279-2.604,28.676-5.638,41.449,10.386C362.51,218.546,348.117,211.268,325.803,218.792"/>
	<path clip-path="url(#SVGID_2_)" fill="#C08C72" d="M306.67,213.129c-5.255-2.634-19.981-3.096-22.976,4.905
		c0.215,1.073,1.677,1.407,3.089,0.676c2.415-1.595,11.319-1.541,21.781,1.729C310.452,220.212,310.895,215.376,306.67,213.129"/>
	<path clip-path="url(#SVGID_2_)" fill="#38302D" d="M366.779,199.521"/>
	<path clip-path="url(#SVGID_2_)" fill="#38302D" d="M375.814,232.174c1.049-5.837-0.339-14.139-1.946-19.545
		c4.113-4.616,7.022-9.005,9.019-13.167l11.199,12.103c0,0-7.65,17.229-11.711,19.738c-0.963,5.703-10.319,21.676-12.21,22.622
		C370.165,253.925,374.875,236.703,375.814,232.174"/>
	<path clip-path="url(#SVGID_2_)" fill="#201C1C" d="M372.354,231.709c-0.064-7.316-5.574-32.188-5.574-32.188l16.661-26.918
		c3.507,7.2,4.525,16.269-0.554,26.858c-1.996,4.163-4.905,8.553-9.019,13.167c1.607,5.407,2.995,13.709,1.946,19.546
		c-0.94,4.529-5.649,21.751-5.649,21.751S371.64,239.268,372.354,231.709"/>
	<path clip-path="url(#SVGID_2_)" fill="#38302D" d="M382.316,169.041c2.713,6.782,7.378,20.219-14.876,33.537
		c-12.626,2.664-26.174,1.108-44.289-3.831c-7.639-1.998-22.452-3.323-31.248,0.585c-2.339,4.723-6.314,37.756-6.382,39.583
		c-10.879-13.158-24.001-36.012-26.953-49.177c0.797-7.311,7.681-26.174,7.681-26.174c3.599-5.711,49.127-28.684,70.876-32.476
		C347.89,128.792,365.187,133.094,382.316,169.041"/>
	<path clip-path="url(#SVGID_2_)" fill="#201C1C" d="M364.151,184.486c0.837,0.174,1.668,0.357,2.532,0.495
		C365.854,184.903,365.006,184.718,364.151,184.486"/>
	<path clip-path="url(#SVGID_2_)" fill="#201C1C" d="M258.568,189.737c0.372-3.416,2.073-9.352,3.78-14.709
		c14.508-12.318,41.536-14.246,52.245-7.129c23.188,17.738,36.412,19.283,50.103,19.746c-23.745,4.004-43.29-4.603-58.715-10.708
		c-18.878-6.875-41.847,9.708-45.683,18.614C259.562,193.473,258.965,191.511,258.568,189.737"/>
	<path clip-path="url(#SVGID_2_)" fill="#201C1C" d="M276.173,215.326c3.6-17.357,14.343-19.137,27.198-18.407l-0.001,0.004
		c-4.197,0.25-8.238,0.974-11.467,2.408c-1.919,3.876-4.938,26.804-5.998,35.919h-0.001
		C285.904,235.25,276.484,218.666,276.173,215.326"/>
	<path clip-path="url(#SVGID_2_)" fill="#38302D" d="M308.231,211.876c-5.108-3.008-19.784-4.531-23.187,3.239
		c0.158,1.087,1.601,1.525,3.048,0.896c2.492-1.416,11.377-0.722,21.651,3.299C311.641,219.218,312.332,214.423,308.231,211.876"/>
	<path clip-path="url(#SVGID_2_)" fill="#201C1C" d="M390.143,220.229c-1.854,3.196-5.063,10.334-7.769,11.074
		c1.888-4.195,3.142-12.646,3.146-14.435C386.836,217.3,388.909,218.623,390.143,220.229"/>
	<g opacity="0.6" clip-path="url(#SVGID_2_)">
		<g>
			<defs>
				<rect id="SVGID_7_" x="321.04" y="221.619" width="40.043" height="27.441"/>
			</defs>
			<clipPath id="SVGID_8_">
				<use xlink:href="#SVGID_7_"  overflow="visible"/>
			</clipPath>
			<path clip-path="url(#SVGID_8_)" fill="#C7E0DF" d="M361.059,224.045c0,0-23.35-8.608-40.019,6.607
				c1.178,6.928,5.835,20.404,21.189,18.159C353.447,246.6,361.582,240.238,361.059,224.045"/>
		</g>
	</g>
	<g opacity="0.6" clip-path="url(#SVGID_2_)">
		<g>
			<defs>
				<rect id="SVGID_9_" x="278.733" y="222.619" width="27.689" height="24.258"/>
			</defs>
			<clipPath id="SVGID_10_">
				<use xlink:href="#SVGID_9_"  overflow="visible"/>
			</clipPath>
			<path clip-path="url(#SVGID_10_)" fill="#C7E0DF" d="M306.413,230.508c-3.648-3.457-14.373-12.098-27.629-5.434
				c-0.417,5.473,1.52,18.807,12.022,21.559C296.225,247.729,306.778,245.59,306.413,230.508"/>
		</g>
	</g>
	<g clip-path="url(#SVGID_2_)">
		<g>
			<defs>
				<rect id="SVGID_11_" x="324.372" y="222.203" width="15.212" height="15.212"/>
			</defs>
			<clipPath id="SVGID_12_">
				<use xlink:href="#SVGID_11_"  overflow="visible"/>
			</clipPath>
			<path clip-path="url(#SVGID_12_)" fill="#FFFFFF" d="M324.643,231.813c1.108,4.052,5.29,6.438,9.341,5.331
				c4.052-1.107,6.438-5.287,5.33-9.339c-1.105-4.052-5.287-6.438-9.338-5.331C325.924,223.58,323.537,227.763,324.643,231.813"/>
		</g>
	</g>
	<g clip-path="url(#SVGID_2_)">
		<g>
			<defs>
				<rect id="SVGID_13_" x="278.592" y="222.588" width="12.68" height="12.68"/>
			</defs>
			<clipPath id="SVGID_14_">
				<use xlink:href="#SVGID_13_"  overflow="visible"/>
			</clipPath>
			<path clip-path="url(#SVGID_14_)" fill="#FFFFFF" d="M278.817,230.598c0.923,3.377,4.408,5.367,7.784,4.443
				c3.377-0.922,5.367-4.406,4.445-7.783c-0.924-3.377-4.409-5.367-7.786-4.444C279.885,223.736,277.895,227.222,278.817,230.598"/>
		</g>
	</g>
	<path clip-path="url(#SVGID_2_)" fill="#292626" d="M282.612,220.439"/>
	<path clip-path="url(#SVGID_2_)" fill="#2B2929" d="M274.668,233.535c0.334,0.148,1.096,0.262,1.916,0.344
		c1.436,7.016,5.342,14.191,14.518,16.002c2.323,0.311,4.639,0.178,6.797-0.412c4.495-1.228,8.296-4.447,10.058-9.75
		c0.573-1.271,1.667-2.051,3.377-2.365c3.687-0.668,8.094,1.099,8.793,1.859l0.609,0.662c3.77,9.691,12.782,13.454,23.911,11.801
		c0.546-0.121,1.073-0.251,1.589-0.392c11.837-3.233,15.721-11.663,16.624-19.028c1.582-0.119,3.549-0.312,4.21-0.559
		c1.095-0.299,4.45-6.193,3.174-8.872c-2.324-1.22-11.669-3.864-18.478-4.296l0.015,0.008c-6.103-0.871-11.675-0.268-16.502,1.051
		c-7.6,2.076-13.357,5.905-16.45,8.455c-0.019,2.121,0.129,4.078,0.397,5.91c-2.615-0.902-5.88-1.371-8.646-0.875
		c-0.563,0.102-1.085,0.251-1.59,0.422c0.045-1.5-0.024-3.091-0.242-4.801c-4.061-4.098-13.936-11.591-26.133-8.26h-0.002
		l0.097,0.353l-0.097-0.353c-1.435,0.392-2.904,0.949-4.397,1.664c-2.863,0.992-5.321,2.135-6.242,2.813
		C271.117,227.57,273.84,233.268,274.668,233.535 M324.687,237.986l-0.054-0.127l-0.063-0.217c-0.764-2.184-1.233-4.686-1.363-7.496
		c2.612-1.9,7.215-4.73,13.216-6.37c7.332-2.003,14.746-1.714,22.067,0.856c0.332,2.506,0.546,6.656-0.713,10.821
		c-1.813,5.995-5.964,9.804-12.688,11.642c-0.4,0.109-0.81,0.211-1.231,0.307c-4.483,0.645-10.69,0.58-15.123-3.277
		C326.97,242.588,325.621,240.512,324.687,237.986 M280.209,225.949c1.182-0.557,2.368-0.998,3.548-1.32l-0.676-2.475h0.001
		l0.677,2.473c9.592-2.619,17.485,3.086,20.834,6.111c0.216,2.768-0.015,5.213-0.645,7.293c-0.03,0.068-0.069,0.131-0.098,0.203
		l-0.814,2.013l0.014,0.005c-1.329,2.52-3.452,4.252-6.296,5.028c-1.552,0.423-3.214,0.528-4.943,0.315
		c-4.718-0.973-7.94-3.811-9.848-8.677C280.403,232.942,280.163,228.657,280.209,225.949"/>
	<path clip-path="url(#SVGID_2_)" fill="#201C1C" d="M282.612,220.439"/>
	<path clip-path="url(#SVGID_2_)" fill="#201C1C" d="M280.729,219.814L280.729,219.814z"/>
	<path clip-path="url(#SVGID_2_)" fill="#1A1919" d="M332.595,246.443c-2.044-0.537-4.026-1.45-5.742-2.943
		c-1.767-1.535-3.114-3.613-4.049-6.139l-0.047-0.118l-0.069-0.224c-0.763-2.186-1.234-4.686-1.365-7.498
		c2.615-1.898,7.217-4.73,13.218-6.369c7.332-2.003,14.745-1.714,22.067,0.855c0.002,0.012,0.003,0.027,0.005,0.039
		c-6.711-1.994-13.483-2.103-20.189-0.271c-6.001,1.64-10.604,4.472-13.216,6.37c0.13,2.813,0.6,5.313,1.363,7.498l0.063,0.215
		l0.054,0.127c0.935,2.525,2.283,4.602,4.049,6.139C329.916,245.152,331.228,245.895,332.595,246.443"/>
	<path clip-path="url(#SVGID_2_)" fill="#1A1919" d="M308.694,232.453c-0.562,0.103-1.083,0.252-1.588,0.422
		c0.043-1.498-0.023-3.09-0.242-4.801c-2.243-2.264-6.267-5.556-11.468-7.494c6.116,1.771,10.844,5.59,13.351,8.119
		c0.168,1.311,0.224,2.533,0.231,3.717C308.886,232.431,308.788,232.438,308.694,232.453"/>
	<path clip-path="url(#SVGID_2_)" fill="#1A1919" d="M289.21,244.779c-4.319-1.106-7.323-3.875-9.13-8.483
		c-1.56-3.978-1.8-8.265-1.753-10.972c1.181-0.557,2.367-0.998,3.547-1.32l-0.676-2.475l0.677,2.475
		c0.544-0.148,1.081-0.264,1.613-0.359l0.269,0.983c-1.18,0.321-2.366,0.765-3.548,1.321c-0.046,2.707,0.194,6.992,1.754,10.971
		C283.494,240.824,285.89,243.404,289.21,244.779"/>
	<path clip-path="url(#SVGID_2_)" fill="#1A1919" d="M283.759,224.627l-0.271-0.983c3.912-0.713,7.494-0.087,10.554,1.075
		C290.984,223.859,287.505,223.604,283.759,224.627"/>
	<path clip-path="url(#SVGID_2_)" fill="#1A1919" d="M274.701,233.256c0.021,0.104,0.049,0.207,0.071,0.311
		c-0.032-0.01-0.077-0.02-0.104-0.031c-0.101-0.033-0.229-0.148-0.377-0.326C274.427,233.226,274.56,233.24,274.701,233.256"/>
	<path clip-path="url(#SVGID_2_)" fill="#1A1919" d="M342.764,251.051c0.546-0.121,1.072-0.25,1.589-0.392
		c11.837-3.233,15.72-11.661,16.624-19.026c1.582-0.121,3.549-0.313,4.208-0.561c1.096-0.299,4.452-6.193,3.176-8.871
		c-0.4-0.211-1.021-0.465-1.787-0.74c1.669,0.518,2.982,1.004,3.669,1.363c1.277,2.679-2.078,8.574-3.173,8.873
		c-0.661,0.246-2.628,0.438-4.21,0.559c-0.903,7.366-4.787,15.795-16.624,19.028c-0.516,0.141-1.043,0.271-1.589,0.392
		c-4.978,0.739-9.527,0.387-13.379-1.087C334.689,251.527,338.577,251.673,342.764,251.051"/>
	<path clip-path="url(#SVGID_2_)" fill="#1A1919" d="M289.22,249.258c2.322,0.311,4.638,0.176,6.796-0.414
		c4.495-1.229,8.295-4.445,10.059-9.75c0.573-1.271,1.666-2.049,3.375-2.363c2.55-0.463,5.416,0.24,7.19,0.967
		c-1.612-0.418-3.538-0.664-5.307-0.343c-1.71,0.313-2.804,1.093-3.377,2.364c-1.762,5.303-5.563,8.521-10.058,9.75
		c-2.158,0.59-4.474,0.723-6.797,0.412c-1.191-0.234-2.292-0.564-3.312-0.97C288.253,249.039,288.725,249.16,289.22,249.258"/>
	<g clip-path="url(#SVGID_2_)">
		<g>
			<defs>
				<rect id="SVGID_15_" x="343.473" y="238.723" width="5.615" height="4.203"/>
			</defs>
			<clipPath id="SVGID_16_">
				<use xlink:href="#SVGID_15_"  overflow="visible"/>
			</clipPath>
			<path clip-path="url(#SVGID_16_)" fill="#FFFFFF" d="M343.525,241.576c0.297,1.084,1.77,1.625,3.291,1.209
				c1.521-0.416,2.516-1.631,2.218-2.714c-0.295-1.083-1.769-1.625-3.289-1.209C344.223,239.278,343.229,240.494,343.525,241.576"/>
		</g>
	</g>
	<g clip-path="url(#SVGID_2_)">
		<g>
			<defs>
				<rect id="SVGID_17_" x="291.855" y="238.516" width="4.577" height="3.32"/>
			</defs>
			<clipPath id="SVGID_18_">
				<use xlink:href="#SVGID_17_"  overflow="visible"/>
			</clipPath>
			<path clip-path="url(#SVGID_18_)" fill="#FFFFFF" d="M291.895,240.791c0.232,0.852,1.429,1.267,2.67,0.926
				c1.243-0.34,2.061-1.305,1.829-2.155c-0.232-0.853-1.429-1.267-2.671-0.929C292.48,238.974,291.662,239.938,291.895,240.791"/>
		</g>
	</g>
	<path clip-path="url(#SVGID_2_)" fill="#FFFFFF" d="M365.758,224.48c-0.708-0.369-2.242-0.771-3.172-0.672
		c-0.584,0.289-0.021,3.105-0.021,3.105c0.403,0.372,2.436-0.044,2.549-0.09C365.52,226.419,366.013,225.459,365.758,224.48"/>
	<path clip-path="url(#SVGID_2_)" fill="#FFFFFF" d="M273.568,226.391c0.517-0.287,1.641-0.619,2.328-0.564
		c0.439,0.201,0.085,2.293,0.085,2.293c-0.291,0.285-1.801,0.021-1.886-0.012C273.786,227.818,273.402,227.119,273.568,226.391"/>
	<path clip-path="url(#SVGID_2_)" fill="#C08C72" d="M328.477,275.224c-0.496,0.524-1.11,0.899-1.749,1.19
		c-0.639,0.303-1.317,0.48-1.999,0.622c-0.688,0.118-1.382,0.188-2.081,0.152c-0.692-0.04-1.416-0.115-2.064-0.465l1.987-0.467
		c0.648-0.15,1.296-0.266,1.939-0.396C325.813,275.636,327.061,275.396,328.477,275.224"/>
	<path clip-path="url(#SVGID_2_)" fill="#95624E" d="M331.979,273.503c-0.688-0.604-1.486-0.886-2.315-1.063
		c-0.82-0.194-1.67-0.272-2.522-0.337c-1.709-0.107-3.44-0.071-5.177-0.032c-3.485,0.085-6.963,0.315-10.585,0.349
		c1.639-0.807,3.389-1.312,5.152-1.679c1.769-0.36,3.565-0.589,5.381-0.633c1.813-0.043,3.648,0.073,5.458,0.486
		c0.902,0.203,1.798,0.508,2.637,0.95C330.827,271.99,331.646,272.63,331.979,273.503"/>
	<path clip-path="url(#SVGID_2_)" fill="#A64D2E" d="M380.492,300.414c-15.664,1.838-21.54,4.531-21.54,4.531
		c-5.126,8.975-16.57,17.31-27.685,14.642c-3.112-1-3.864-7.54-0.486-12.938l-0.452-2.823c-2.042-0.655-5.485-1.937-7.356-2.345
		c-1.263,2.468-26.266,49.63-26.266,49.63c-2.423,10.282-23.938,66.858-23.938,66.858h87.942l15.872-80.462L380.492,300.414z"/>
	<path clip-path="url(#SVGID_2_)" fill="#7F3520" d="M355.041,320.247l18.033,35.05l-9.679,49.055
		c-8.29,6.614-23.918,8.469-23.918,8.469h-60.404c0,0,10.184-6.313,9.241-17.415c8.093-2.07,38.556-17.38,44.389-21.637
		c0,0-1.316-2.517-1.881-3.646C333.833,362.972,348.51,333.742,355.041,320.247"/>
	<path clip-path="url(#SVGID_2_)" fill="#CCA795" d="M322.973,301.481c-7.373-3.054-29.952,10.31-39.629,21.368
		c-11.059,8.755-46.828,41.143-53.452,45.504c-8.595,5.147-37.493,32.898-63.759,34.279c0.461,5.991,4.652,5.07,4.652,5.07
		l45.91-1.479c26.127-9.878,75.863-49.43,80.012-55.112C303.619,339.438,322.973,301.481,322.973,301.481"/>
	<path clip-path="url(#SVGID_2_)" fill="#A64D2E" d="M322.973,301.481c-7.423-2.332-26.159,5.043-52.894,30.446
		c-4.467,4.241-21.048,19.313-21.048,19.313c4.048,8.065,14.964,21.304,23.737,22.526c22.706-20.182,23.938-22.656,23.938-22.656
		S320.482,314.647,322.973,301.481"/>
	<path clip-path="url(#SVGID_2_)" fill="#7F3520" d="M296.707,351.111c2.274-7.014,11.314-25.723,11.314-25.723
		c-10.932,12.192-18.711,30.272-45.622,44.779c0.84,3.574,5.831,6.518,5.831,6.518C272.769,373.768,291.279,357.495,296.707,351.111
		"/>
	<path clip-path="url(#SVGID_2_)" fill="#3F3F44" d="M276.749,412.82c-2.108-17.438-54.624-33.391-57.577,0H276.749z"/>
	<path clip-path="url(#SVGID_2_)" fill="#E0C1AD" d="M369.342,302.984c-19.542,17.723-24.995,59.078-33.176,74.076
		c-8.635,6.362-45.422,17.212-52.382,18.466c-1.925,0.348-3.996,0.393-6.025,0.325c-8.955-3.396-17.871-6.902-23.223-7.813
		c-3.596-0.613-17.196-2.681-19.188-2.432c-2.404,0.332-10.035,9.207-10.035,9.207c0.662,1.742,3.732,2.405,7.05,0
		c2.073-1.493,3.566-2.903,3.566-2.903c2.905,0.498,6.139,1.078,6.139,1.078c-2.156,0.913-9.456,5.132-10.036,5.47
		c-1.577,1.25-6.305,5.397-6.305,5.397c-1.492,1.493,0.58,2.753,2.903,1.957c2.487-0.796,7.382-4.115,7.382-4.115
		c-0.899,0.594-4.563,4.314-5.061,5.476c-0.662,1.327-0.164,4.313,4.895,0.747c2.988-2.24,6.721-4.812,6.721-4.812
		c0.994-0.829,4.976-2.239,4.976-2.239c1.659-0.415,2.323-0.498,2.323-0.498c-2.738,1.244-6.259,4.277-6.259,4.277
		c-0.997,0.994-3.515,4.629-3.515,4.629c0.249,1.161,2.684,1.923,5.753-1.063c2.406-2.322,7.445-3.827,9.312-4.075
		c1.786-0.166,6.228,4.891,8.005,5.759c2.392,1.054,4.707,2.048,12.838,0.902c3.903,0.249,5.512,0.205,8.904,0.515
		c17.613,0.654,68.986-4.26,75.349-12.44c6.363-6.816,35.448-56.353,39.084-72.713C402.517,302.074,380.703,298.894,369.342,302.984
		"/>
	<path clip-path="url(#SVGID_2_)" fill="#A64D2E" d="M369.342,302.984c9.486-4.313,36.103-7.467,30.308,26.489
		c-2.471,10.813-23.979,57.018-23.979,57.018c-7.715,1.359-26.974-0.328-40.581-14.746
		C340.161,359.293,350.024,316.472,369.342,302.984"/>
	<g opacity="0.4" clip-path="url(#SVGID_2_)">
		<g>
			<defs>
				<rect id="SVGID_19_" x="234.548" y="401.697" width="1.465" height="1.293"/>
			</defs>
			<clipPath id="SVGID_20_">
				<use xlink:href="#SVGID_19_"  overflow="visible"/>
			</clipPath>
			<path clip-path="url(#SVGID_20_)" fill="#314EAA" d="M236.013,401.697c-0.28,0.186-0.829,0.674-1.465,1.293L236.013,401.697z"/>
		</g>
	</g>
	<g opacity="0.4" clip-path="url(#SVGID_2_)">
		<g>
			<defs>
				<rect id="SVGID_21_" x="225.508" y="397.098" width="18.474" height="8.96"/>
			</defs>
			<clipPath id="SVGID_22_">
				<use xlink:href="#SVGID_21_"  overflow="visible"/>
			</clipPath>
			<path clip-path="url(#SVGID_22_)" fill="#314EAA" d="M236.013,401.697c1.518-1.008,5.329-3.17,5.329-3.17
				c1.576-0.733,2.64-1.43,2.64-1.43c-1.413,0.204-3.244,0.671-4.362,1.012c-2.682,1.268-7.843,4.633-8.613,5.183
				c-0.879,0.514-4.03,2.463-5.496,2.203c0.542,0.553,1.789,0.773,3.12,0.317C231.119,405.017,236.013,401.697,236.013,401.697"/>
		</g>
	</g>
	<g opacity="0.4" clip-path="url(#SVGID_2_)">
		<g>
			<defs>
				<rect id="SVGID_23_" x="231.566" y="399.433" width="20.333" height="10.174"/>
			</defs>
			<clipPath id="SVGID_24_">
				<use xlink:href="#SVGID_23_"  overflow="visible"/>
			</clipPath>
			<path clip-path="url(#SVGID_24_)" fill="#314EAA" d="M247.542,400.869c1.659-0.415,2.323-0.498,2.323-0.498
				c1.044-0.305,2.033-0.561,2.033-0.561c-1.208-0.338-2.631-0.464-3.805-0.317c-1.648,0.293-2.976,0.207-6.055,2.112
				c-1.43,1.21-8.225,7.709-10.473,7.926c0.758,0.246,2.09-0.068,4.28-1.611c2.987-2.24,6.718-4.812,6.718-4.812
				C243.562,402.279,247.542,400.869,247.542,400.869"/>
		</g>
	</g>
	<g clip-path="url(#SVGID_2_)">
		<g>
			<defs>
				<rect id="SVGID_25_" x="166.105" y="130.585" width="178.104" height="277.169"/>
			</defs>
			<clipPath id="SVGID_26_">
				<use xlink:href="#SVGID_25_"  overflow="visible"/>
			</clipPath>
			<path clip-path="url(#SVGID_26_)" fill="#FFFFFF" d="M271.726,199.521c5.879-6.604,21.786-17.161,55.163-3.968
				c-14.908-2.476-46.701-7.431-54.868,14.393c4.465,8.233,7.617,11.516,7.617,11.516c-1.45,0.643-4.737,3.225-4.211,4.94
				c0.526,1.718,2.215,16.744,13.311,20.511c-0.579,8.521-2.284,17.486-2.284,17.486c5.541,6.862,19.158,23.524,46.006,25.986
				c0.146,7.417-0.508,19.889-0.508,19.889l-1.199-3.624c-3.103-0.213-17.812-4.051-35.08,15.615
				c-17.268,19.666-71.949,62.036-71.949,62.036s-23.477,15.584-41.172,23.023l-11.793,0.379c0,0-4.192,0.923-4.653-5.07
				c26.267-1.381,55.165-29.132,63.759-34.279c2.76-1.816,10.578-8.498,19.557-16.306c-0.145-0.273-0.285-0.543-0.418-0.807
				c0,0,16.581-15.071,21.049-19.313c23.058-21.909,40.157-30.4,49.189-30.828c1.46-0.133,2.721-0.026,3.704,0.382
				c1.872,0.408,5.313,1.688,7.357,2.345l-2.104-13.186c-0.061-0.001-0.122,0.003-0.183,0.003c-0.226-0.001-0.456-0.017-0.683-0.022
				c-0.819-0.021-1.647-0.067-2.482-0.139c-0.572-0.05-1.146-0.11-1.725-0.183c-0.868-0.108-1.741-0.24-2.619-0.399
				c-2.836-0.513-5.707-1.275-8.538-2.255c-0.152-0.054-0.307-0.1-0.459-0.153c-0.249-0.089-0.496-0.188-0.745-0.279
				c-1.127-0.415-2.248-0.855-3.354-1.334c-2.516-1.09-4.957-2.343-7.272-3.714c-0.167-0.099-0.338-0.192-0.503-0.293
				c-4.899-2.964-9.181-6.485-12.258-10.247c-0.014-0.017-0.029-0.032-0.042-0.049c-1.138-1.395-2.106-2.822-2.882-4.269
				c-0.013-0.022-0.028-0.046-0.041-0.069c-0.239-0.449-0.455-0.901-0.655-1.354c-0.018-0.039-0.04-0.079-0.058-0.12
				c-0.187-0.427-0.347-0.856-0.496-1.284c-0.022-0.065-0.054-0.132-0.076-0.197c0-0.001-0.001-0.002-0.001-0.002
				c0.001-0.004,0.001-0.008,0.002-0.011v-0.001c0.215-1.276,0.41-2.571,0.592-3.874c0.053-0.372,0.101-0.747,0.15-1.121
				c0.134-0.999,0.259-2.002,0.375-3.012c0.013-0.118,0.027-0.237,0.041-0.355c0.026-0.228,0.053-0.455,0.077-0.684
				c0.235-2.146,0.433-4.313,0.597-6.49c0.002-0.021,0.004-0.045,0.006-0.066c0.028-0.377,0.042-0.756,0.068-1.133
				c-4.966-3.121-7.409-8.43-8.478-13.654c-0.821-0.082-1.584-0.194-1.916-0.344c-0.051-0.017-0.108-0.055-0.172-0.109
				c-0.061-0.053-0.128-0.125-0.198-0.211c-0.002-0.002-0.005-0.004-0.007-0.006c-1.062-1.283-3.07-5.961-2.318-8.293
				c0.484-0.357,1.403-0.845,2.576-1.369c-4.2-6.646-8.133-13.772-11.117-20.317c-0.005-0.014-0.012-0.028-0.019-0.042
				c-0.368-0.81-0.724-1.611-1.062-2.401c-0.02-0.047-0.039-0.092-0.059-0.138c-0.312-0.73-0.608-1.45-0.892-2.159
				c-0.026-0.069-0.056-0.139-0.083-0.207c-0.281-0.71-0.547-1.408-0.797-2.094c-0.045-0.124-0.089-0.246-0.133-0.37
				c-0.227-0.63-0.44-1.249-0.638-1.855c-0.021-0.061-0.042-0.124-0.062-0.185c-0.205-0.635-0.39-1.253-0.561-1.858
				c-0.04-0.141-0.077-0.277-0.115-0.415c-0.035-0.134-0.076-0.271-0.111-0.403c-0.122-0.465-0.235-0.922-0.335-1.365
				c0.024-0.221,0.055-0.454,0.09-0.696c0.012-0.083,0.028-0.174,0.041-0.26c0.025-0.162,0.05-0.324,0.079-0.494
				c0.019-0.104,0.039-0.214,0.059-0.321c0.03-0.161,0.059-0.322,0.092-0.489c0.022-0.117,0.048-0.238,0.072-0.357
				c0.034-0.164,0.067-0.329,0.104-0.498c0.008-0.038,0.014-0.072,0.022-0.109c0.02-0.092,0.043-0.189,0.063-0.283
				c0.038-0.168,0.076-0.335,0.116-0.508c0.032-0.139,0.065-0.28,0.1-0.421c0.04-0.17,0.081-0.34,0.123-0.512
				c0.036-0.147,0.074-0.295,0.111-0.443c0.043-0.176,0.088-0.351,0.134-0.53c0.04-0.153,0.08-0.307,0.12-0.463
				c0.045-0.174,0.093-0.349,0.14-0.524c0.044-0.164,0.089-0.329,0.134-0.494c0.048-0.174,0.095-0.349,0.145-0.525
				c0.045-0.166,0.093-0.332,0.14-0.5c0.051-0.179,0.102-0.359,0.153-0.539c0.048-0.171,0.098-0.341,0.147-0.513
				c0.05-0.172,0.1-0.343,0.15-0.515c0.053-0.182,0.106-0.364,0.16-0.546c0.05-0.169,0.101-0.337,0.151-0.506
				c0.045-0.149,0.089-0.298,0.135-0.448c0.009-0.035,0.021-0.07,0.031-0.102c0.051-0.17,0.103-0.34,0.155-0.51
				c0.056-0.182,0.111-0.365,0.168-0.548c0.053-0.17,0.105-0.34,0.16-0.512c0.124-0.402,0.249-0.801,0.374-1.197
				c0.039-0.116,0.074-0.232,0.11-0.346c0.12-0.377,0.24-0.75,0.359-1.12c0.228-0.704,0.454-1.393,0.675-2.06
				c0.332-1.002,0.653-1.954,0.953-2.833c0.227-0.662,0.438-1.276,0.635-1.843c0.763-2.195,1.28-3.609,1.28-3.609
				c0.505-0.803,1.841-1.947,3.821-3.332c0.221-0.154,0.448-0.311,0.685-0.47c1.18-0.799,2.552-1.667,4.088-2.589
				c0.434-0.261,0.885-0.527,1.344-0.797c1.28-0.749,2.653-1.527,4.107-2.328c0.478-0.263,0.963-0.528,1.458-0.795
				c0.648-0.351,1.31-0.704,1.985-1.061c1.318-0.697,2.685-1.405,4.091-2.119c0.708-0.359,1.425-0.719,2.151-1.08
				c1.019-0.507,2.054-1.015,3.104-1.524c1.044-0.504,2.099-1.009,3.166-1.511c0.459-0.216,0.92-0.432,1.383-0.647
				c0.714-0.332,1.432-0.662,2.154-0.991c0.681-0.311,1.361-0.62,2.048-0.927c3.295-1.476,6.636-2.906,9.938-4.242
				c0.473-0.192,0.942-0.38,1.412-0.568c8.929-3.553,17.481-6.369,23.938-7.495c0.001,0,0.001,0,0.003,0
				c0.482-0.103,0.98-0.187,1.489-0.261c0.089-0.013,0.178-0.026,0.269-0.038c0.528-0.071,1.067-0.126,1.622-0.161
				c0.002,0,0.005,0,0.008,0c1.185-0.073,2.429-0.054,3.722,0.074h0.001c-22.826,7.17-49.475,21.482-65.164,31.314
				C274.727,168.133,269.524,190.936,271.726,199.521"/>
		</g>
	</g>
	<path clip-path="url(#SVGID_2_)" fill="#777A82" d="M85.064,378.061h186.297c4.941,0,8.949-4.007,8.949-8.949V254.98
		c0-4.943-4.008-8.951-8.949-8.951H85.064c-4.941,0-8.949,4.008-8.949,8.951v114.131C76.115,374.054,80.123,378.061,85.064,378.061"
		/>
	<path clip-path="url(#SVGID_2_)" fill="#3F3F44" d="M72.985,378.061H259.28c4.944,0,8.95-4.007,8.95-8.949V254.98
		c0-4.943-4.006-8.951-8.95-8.951H72.985c-4.944,0-8.949,4.008-8.949,8.951v114.131C64.036,374.054,68.041,378.061,72.985,378.061"
		/>
	<path clip-path="url(#SVGID_2_)" fill="#37383B" d="M106.344,351.241h99.688c3.792,0,6.866-3.072,6.866-6.864v-56.672
		c0-3.793-3.074-6.866-6.866-6.866h-99.688c-3.793,0-6.866,3.073-6.866,6.866v56.672
		C99.478,348.169,102.551,351.241,106.344,351.241"/>
	<path clip-path="url(#SVGID_2_)" fill="#2C2D2F" d="M95.664,351.836h99.688c3.792,0,6.866-3.073,6.866-6.865v-56.673
		c0-3.792-3.074-6.865-6.866-6.865H95.664c-3.793,0-6.865,3.073-6.865,6.865v56.673C88.799,348.763,91.871,351.836,95.664,351.836"
		/>
	<rect x="127.387" y="301.039" clip-path="url(#SVGID_2_)" fill="#3D3E41" width="36.242" height="101.594"/>
	<rect x="127.387" y="301.039" clip-path="url(#SVGID_2_)" fill="#252628" width="28.092" height="101.594"/>
	<rect x="107.188" y="402.633" clip-path="url(#SVGID_2_)" fill="#777A82" width="112.884" height="9.804"/>
	<rect x="89.066" y="402.633" clip-path="url(#SVGID_2_)" fill="#333438" width="112.884" height="9.804"/>
	<rect x="46.984" y="412.437" clip-path="url(#SVGID_2_)" fill="#957C6B" width="412.826" height="16.102"/>
	<g opacity="0.4" clip-path="url(#SVGID_2_)">
		<g>
			<defs>
				<rect id="SVGID_27_" x="226.818" y="389.449" width="18.771" height="6.926"/>
			</defs>
			<clipPath id="SVGID_28_">
				<use xlink:href="#SVGID_27_"  overflow="visible"/>
			</clipPath>
			<path clip-path="url(#SVGID_28_)" fill="#314EAA" d="M232.362,394.813c2.074-1.493,3.567-2.903,3.567-2.903
				c2.902,0.498,6.138,1.078,6.138,1.078c1.056-0.414,3.523-1.277,3.523-1.277c-1.563-0.576-9.578-2.262-9.578-2.262
				c-1.972,1.521-7.249,6.758-9.194,6.712C228.172,396.638,230.213,396.372,232.362,394.813"/>
		</g>
	</g>
	<g opacity="0.4" clip-path="url(#SVGID_2_)">
		<g>
			<defs>
				<rect id="SVGID_29_" x="285.269" y="130.585" width="132.147" height="256.285"/>
			</defs>
			<clipPath id="SVGID_30_">
				<use xlink:href="#SVGID_29_"  overflow="visible"/>
			</clipPath>
			<path clip-path="url(#SVGID_30_)" fill="#314EAA" d="M364.548,278.967l0.075-0.357c4.235-1.61,9.566-5.121,15.143-9.552
				c4.299-0.956,9.014-4.347,12.698-11.181c10.187-9.791,18.897-20.096,20.417-24.307c4.64-14.557,5.748-36.395,3.197-47.305
				c-3.298-11.326-23.026-13.522-31.334-13.657c7.44-8.363,25.263-8.759,32.511-6.755c-10.383-9.668-26.454-11.827-30.701-8.483
				c0,0-3.11,5.205-4.805,10.436c-13.539-27.821-27.13-36.079-37.474-37.105h-0.002c-1.294-0.128-2.536-0.147-3.722-0.074
				c-0.003,0-0.005,0-0.009,0.001c-0.554,0.034-1.093,0.089-1.62,0.159c-0.091,0.012-0.179,0.026-0.271,0.039
				c-0.506,0.075-1.007,0.159-1.487,0.262c-0.001,0-0.002,0-0.004,0c-6.455,1.126-15.009,3.942-23.938,7.496
				c-0.471,0.187-0.941,0.375-1.413,0.567c-3.303,1.336-6.644,2.766-9.938,4.241c-0.686,0.307-1.368,0.617-2.049,0.928
				c-0.721,0.329-1.44,0.659-2.154,0.991c-0.462,0.215-0.923,0.43-1.382,0.646c-1.067,0.503-2.123,1.008-3.166,1.511
				c-1.05,0.508-2.086,1.018-3.104,1.523c-0.727,0.362-1.443,0.722-2.15,1.08c-0.885,0.45-1.747,0.895-2.598,1.338
				c14.484-0.266,30.82,4.877,53.735,21.191c8.107,7.099,36.042,20.23,44.385,13.665c-1.626,6.25-10.95,18.967-29.071,17.593
				c1.813,5.271,0.61,74.941-29.404,86.624c0.836,0.071,1.663,0.118,2.482,0.139c0.228,0.006,0.458,0.021,0.684,0.022
				c0.062,0,0.121-0.004,0.183-0.003c2.695-0.045,5.382-0.166,9.093-1.314c1.688,6.192,4.694,17.201,2.479,30.921
				c11.1-4.207,24.886-9.447,32.695,0c5.91,7.073-25.801,60.403-25.801,60.403c4.181,2.682,7.589,3.352,7.589,3.352
				c2.632,0.903,7.594,2.428,14.325,2.816c2.835,0.137,5.267-0.011,7.064-0.327c0,0,21.508-46.204,23.979-57.018
				c4.851-28.426-13.005-30.843-24.519-28.347c-11.663,1.748-16.179,3.818-16.179,3.818L364.548,278.967L364.548,278.967z"/>
		</g>
	</g>
	<g opacity="0.4" clip-path="url(#SVGID_2_)">
		<g>
			<defs>
				<rect id="SVGID_31_" x="241.041" y="384.002" width="127.567" height="27.371"/>
			</defs>
			<clipPath id="SVGID_32_">
				<use xlink:href="#SVGID_31_"  overflow="visible"/>
			</clipPath>
			<path clip-path="url(#SVGID_32_)" fill="#314EAA" d="M293.621,407.107c-2.183,0.003-12.909,0.382-17.18-0.473
				c-4.218,0.699-6.701,1.562-13.725-1.308c-2.956-1.799-6.724-4.267-10.535-2.262c-2.056,0.934-5.14,1.705-7.195,4.061
				c-0.942,1.241-2.925,3.078-3.945,3.06c1.026,0.335,2.773,0.004,4.805-1.972c2.404-2.322,7.444-3.827,9.311-4.075
				c1.786-0.166,6.228,4.891,8.005,5.759c2.392,1.054,4.707,2.048,12.838,0.902c3.903,0.249,5.512,0.203,8.906,0.515
				c17.612,0.654,68.984-4.26,75.347-12.44c1.602-1.716,4.644-6.14,8.356-12.058c-6.714-0.393-11.664-1.914-14.291-2.814
				C349.486,390.927,335.63,405.667,293.621,407.107"/>
		</g>
	</g>
</g>
<g>
	<defs>
		<rect id="SVGID_33_" width="500" height="500"/>
	</defs>
	<clipPath id="SVGID_34_">
		<use xlink:href="#SVGID_33_"  overflow="visible"/>
	</clipPath>
	<path clip-path="url(#SVGID_34_)" fill="#FFFFFF" d="M181.087,472.134c-0.247,0-0.435,0.085-0.566,0.255
		c-0.134,0.17-0.2,0.421-0.2,0.753v2.393c-0.304-0.332-0.617-0.579-0.938-0.739c-0.321-0.159-0.715-0.24-1.181-0.24
		c-0.807,0-1.458,0.284-1.953,0.849c-0.494,0.565-0.742,1.355-0.742,2.369c0,0.479,0.063,0.923,0.187,1.335
		c0.125,0.412,0.307,0.77,0.55,1.074c0.24,0.305,0.526,0.539,0.856,0.703s0.69,0.246,1.078,0.246c0.293,0,0.563-0.04,0.809-0.122
		c0.247-0.08,0.477-0.2,0.689-0.356c0.212-0.155,0.426-0.358,0.643-0.607v0.16c0,0.297,0.073,0.525,0.217,0.687
		c0.145,0.159,0.328,0.239,0.549,0.239c0.226,0,0.41-0.078,0.553-0.231c0.142-0.154,0.213-0.386,0.213-0.694v-7.146
		c0-0.305-0.066-0.534-0.199-0.69C181.521,472.212,181.333,472.134,181.087,472.134 M180.021,478.975
		c-0.141,0.306-0.329,0.532-0.563,0.682c-0.236,0.148-0.497,0.223-0.782,0.223c-0.28,0-0.539-0.078-0.777-0.235
		c-0.237-0.155-0.424-0.388-0.562-0.696c-0.135-0.31-0.204-0.683-0.204-1.122c0-0.415,0.063-0.78,0.193-1.096
		c0.128-0.315,0.309-0.556,0.543-0.724c0.233-0.168,0.498-0.253,0.795-0.253c0.285,0,0.547,0.083,0.788,0.246
		c0.238,0.165,0.427,0.402,0.568,0.713c0.141,0.311,0.21,0.682,0.21,1.113C180.231,478.283,180.162,478.667,180.021,478.975"/>
	<path clip-path="url(#SVGID_34_)" fill="#FFFFFF" d="M188.451,478.054c0.233-0.122,0.351-0.385,0.351-0.793
		c0-0.439-0.113-0.87-0.339-1.294c-0.225-0.423-0.563-0.769-1.019-1.035c-0.452-0.268-0.995-0.399-1.627-0.399
		c-0.488,0-0.931,0.077-1.33,0.233c-0.399,0.156-0.737,0.381-1.01,0.674c-0.272,0.293-0.48,0.644-0.623,1.054
		c-0.142,0.409-0.212,0.854-0.212,1.332c0,1.017,0.288,1.822,0.865,2.414c0.578,0.594,1.387,0.892,2.429,0.892
		c0.455,0,0.857-0.06,1.207-0.178c0.351-0.12,0.641-0.269,0.873-0.448c0.231-0.181,0.404-0.368,0.519-0.564
		c0.115-0.196,0.174-0.366,0.174-0.514c0-0.166-0.054-0.294-0.157-0.386c-0.102-0.09-0.236-0.136-0.402-0.136
		c-0.155,0-0.274,0.035-0.357,0.106c-0.202,0.189-0.366,0.34-0.492,0.45c-0.127,0.112-0.265,0.217-0.416,0.313
		c-0.15,0.098-0.305,0.167-0.466,0.214c-0.16,0.045-0.337,0.068-0.531,0.068c-0.288,0-0.552-0.071-0.792-0.214
		c-0.239-0.144-0.432-0.354-0.575-0.636c-0.145-0.281-0.22-0.606-0.223-0.974h3.168
		C187.889,478.234,188.218,478.174,188.451,478.054 M184.297,477.315c0.056-0.547,0.212-0.96,0.472-1.238
		c0.258-0.279,0.59-0.418,0.993-0.418c0.424,0,0.764,0.135,1.025,0.411c0.259,0.275,0.408,0.691,0.447,1.245H184.297z"/>
	<path clip-path="url(#SVGID_34_)" fill="#FFFFFF" d="M193.878,477.617c-0.319-0.17-0.729-0.316-1.231-0.438
		c-0.424-0.104-0.756-0.191-0.997-0.262c-0.243-0.07-0.434-0.161-0.576-0.271c-0.143-0.108-0.214-0.247-0.214-0.418
		c0-0.187,0.097-0.342,0.291-0.464c0.194-0.126,0.437-0.188,0.729-0.188c0.287,0,0.512,0.047,0.678,0.142
		c0.166,0.096,0.31,0.223,0.433,0.381c0.151,0.189,0.283,0.332,0.401,0.426c0.116,0.096,0.257,0.144,0.424,0.144
		c0.23,0,0.407-0.061,0.531-0.178c0.124-0.119,0.187-0.271,0.187-0.457c0-0.171-0.058-0.345-0.176-0.524
		c-0.116-0.177-0.286-0.339-0.51-0.484c-0.222-0.146-0.503-0.265-0.837-0.351c-0.333-0.088-0.71-0.13-1.13-0.13
		c-0.535,0-0.989,0.084-1.367,0.258c-0.377,0.172-0.664,0.403-0.858,0.69c-0.194,0.289-0.291,0.597-0.291,0.92
		c0,0.364,0.105,0.671,0.315,0.921c0.21,0.249,0.49,0.45,0.84,0.602c0.35,0.152,0.804,0.298,1.361,0.436
		c0.495,0.119,0.85,0.244,1.065,0.375c0.216,0.131,0.324,0.338,0.324,0.622c0,0.188-0.104,0.352-0.312,0.497
		c-0.208,0.144-0.474,0.216-0.799,0.216c-0.4,0-0.715-0.07-0.947-0.213c-0.231-0.144-0.431-0.357-0.597-0.647
		c-0.082-0.15-0.169-0.267-0.261-0.351c-0.091-0.082-0.221-0.124-0.39-0.124c-0.194,0-0.356,0.063-0.481,0.19
		c-0.127,0.126-0.19,0.278-0.19,0.456c0,0.27,0.098,0.538,0.295,0.805c0.199,0.267,0.505,0.489,0.921,0.667
		c0.415,0.179,0.914,0.268,1.495,0.268c0.609,0,1.126-0.082,1.553-0.246c0.425-0.163,0.747-0.405,0.964-0.725
		c0.218-0.318,0.327-0.701,0.327-1.148c0-0.297-0.082-0.561-0.246-0.792C194.438,477.988,194.196,477.787,193.878,477.617"/>
	<path clip-path="url(#SVGID_34_)" fill="#FFFFFF" d="M196.486,474.544c-0.238,0-0.431,0.08-0.579,0.242
		c-0.149,0.162-0.222,0.404-0.222,0.723v4.638c0,0.315,0.073,0.559,0.222,0.729c0.148,0.17,0.341,0.255,0.579,0.255
		c0.238,0,0.434-0.083,0.588-0.249c0.154-0.166,0.23-0.412,0.23-0.735v-4.684c0-0.288-0.076-0.515-0.23-0.677
		C196.919,474.624,196.724,474.544,196.486,474.544"/>
	<path clip-path="url(#SVGID_34_)" fill="#FFFFFF" d="M196.504,472.204c-0.217,0-0.409,0.073-0.573,0.223
		c-0.164,0.149-0.246,0.337-0.246,0.567c0,0.254,0.08,0.449,0.24,0.588c0.161,0.137,0.353,0.209,0.579,0.209
		c0.217,0,0.405-0.072,0.563-0.213c0.158-0.14,0.237-0.335,0.237-0.584c0-0.258-0.08-0.453-0.242-0.588
		S196.714,472.204,196.504,472.204"/>
	<path clip-path="url(#SVGID_34_)" fill="#FFFFFF" d="M203.625,474.544c-0.217,0-0.395,0.076-0.534,0.23
		c-0.139,0.156-0.208,0.372-0.208,0.652v0.221c-0.288-0.376-0.601-0.652-0.937-0.83c-0.337-0.174-0.736-0.263-1.194-0.263
		c-0.383,0-0.736,0.068-1.056,0.204c-0.321,0.138-0.604,0.34-0.849,0.609c-0.245,0.269-0.433,0.599-0.566,0.991
		c-0.133,0.391-0.198,0.831-0.198,1.316c0,0.654,0.107,1.229,0.326,1.729c0.216,0.498,0.528,0.886,0.935,1.163
		c0.406,0.276,0.879,0.416,1.422,0.416c0.45,0,0.839-0.092,1.165-0.273c0.327-0.182,0.614-0.448,0.864-0.797
		c-0.008,0.531-0.019,0.916-0.035,1.155c-0.016,0.24-0.071,0.465-0.164,0.674c-0.093,0.21-0.255,0.373-0.486,0.489
		c-0.232,0.117-0.557,0.176-0.977,0.176c-0.205,0-0.388-0.021-0.546-0.057c-0.158-0.038-0.294-0.095-0.406-0.171
		c-0.112-0.079-0.217-0.171-0.309-0.28c-0.093-0.108-0.183-0.217-0.27-0.323c-0.178-0.21-0.386-0.314-0.623-0.314
		c-0.189,0-0.353,0.062-0.486,0.188c-0.136,0.124-0.203,0.284-0.203,0.482c0,0.261,0.12,0.517,0.357,0.764
		c0.238,0.247,0.576,0.448,1.014,0.605c0.438,0.155,0.939,0.233,1.496,0.233c0.609,0,1.119-0.061,1.528-0.184
		c0.41-0.122,0.741-0.311,0.995-0.563c0.253-0.254,0.437-0.573,0.551-0.961c0.115-0.389,0.174-0.852,0.174-1.39v-4.706
		c0-0.383-0.053-0.678-0.156-0.883C204.146,474.646,203.938,474.544,203.625,474.544 M202.6,478.908
		c-0.151,0.291-0.346,0.507-0.586,0.653c-0.239,0.144-0.493,0.217-0.762,0.217c-0.455,0-0.826-0.168-1.112-0.504
		c-0.288-0.336-0.431-0.836-0.431-1.49c0-0.649,0.139-1.15,0.418-1.502c0.279-0.352,0.649-0.529,1.113-0.529
		c0.475,0,0.858,0.185,1.149,0.554c0.291,0.367,0.436,0.881,0.436,1.542C202.825,478.265,202.749,478.617,202.6,478.908"/>
	<path clip-path="url(#SVGID_34_)" fill="#FFFFFF" d="M210.978,475.61c-0.165-0.339-0.417-0.602-0.753-0.788
		c-0.337-0.187-0.718-0.278-1.146-0.278c-0.439,0-0.828,0.088-1.166,0.263c-0.338,0.177-0.65,0.452-0.935,0.828v-0.195
		c0-0.193-0.034-0.358-0.104-0.493c-0.069-0.134-0.161-0.234-0.275-0.301c-0.115-0.069-0.244-0.102-0.387-0.102
		c-0.233,0-0.417,0.075-0.552,0.228c-0.134,0.152-0.201,0.383-0.201,0.692v4.682c0,0.316,0.076,0.56,0.226,0.73
		c0.15,0.171,0.341,0.256,0.576,0.256c0.241,0,0.438-0.083,0.59-0.247s0.228-0.41,0.228-0.739v-2.03c0-0.66,0.04-1.109,0.119-1.353
		c0.111-0.299,0.284-0.537,0.523-0.71c0.236-0.171,0.5-0.259,0.788-0.259c0.444,0,0.74,0.144,0.888,0.426s0.223,0.691,0.223,1.226
		v2.7c0,0.316,0.074,0.56,0.225,0.73c0.151,0.171,0.346,0.256,0.588,0.256c0.237,0,0.43-0.084,0.577-0.25
		c0.15-0.166,0.224-0.412,0.224-0.736v-3.015c0-0.357-0.016-0.648-0.048-0.878C211.155,476.023,211.085,475.809,210.978,475.61"/>
	<path clip-path="url(#SVGID_34_)" fill="#FFFFFF" d="M217.822,478.054c0.233-0.122,0.35-0.385,0.35-0.793
		c0-0.439-0.113-0.87-0.338-1.294c-0.227-0.423-0.565-0.769-1.019-1.035c-0.454-0.268-0.997-0.399-1.629-0.399
		c-0.486,0-0.931,0.077-1.33,0.233s-0.735,0.381-1.008,0.674c-0.273,0.293-0.482,0.644-0.624,1.054
		c-0.142,0.409-0.214,0.854-0.214,1.332c0,1.017,0.288,1.822,0.865,2.414c0.579,0.594,1.389,0.892,2.429,0.892
		c0.455,0,0.857-0.06,1.208-0.178c0.351-0.12,0.64-0.269,0.871-0.448c0.232-0.181,0.405-0.368,0.521-0.564
		c0.113-0.196,0.172-0.366,0.172-0.514c0-0.166-0.052-0.294-0.154-0.386c-0.104-0.09-0.238-0.136-0.404-0.136
		c-0.155,0-0.272,0.035-0.356,0.106c-0.202,0.189-0.367,0.34-0.493,0.45c-0.128,0.112-0.266,0.217-0.415,0.313
		c-0.15,0.098-0.307,0.167-0.465,0.214c-0.163,0.045-0.338,0.068-0.533,0.068c-0.289,0-0.552-0.071-0.792-0.214
		c-0.239-0.144-0.43-0.354-0.575-0.636c-0.145-0.281-0.219-0.606-0.224-0.974h3.169
		C217.259,478.234,217.587,478.174,217.822,478.054 M213.666,477.315c0.056-0.547,0.212-0.96,0.472-1.238
		c0.259-0.279,0.59-0.418,0.995-0.418c0.423,0,0.764,0.135,1.023,0.411c0.259,0.275,0.41,0.691,0.449,1.245H213.666z"/>
	<path clip-path="url(#SVGID_34_)" fill="#FFFFFF" d="M224.207,472.134c-0.246,0-0.435,0.085-0.566,0.255
		c-0.134,0.17-0.201,0.421-0.201,0.753v2.393c-0.303-0.332-0.615-0.579-0.938-0.739c-0.32-0.159-0.714-0.24-1.18-0.24
		c-0.807,0-1.458,0.284-1.953,0.849c-0.496,0.565-0.742,1.355-0.742,2.369c0,0.479,0.062,0.923,0.187,1.335s0.308,0.77,0.55,1.074
		c0.242,0.305,0.528,0.539,0.858,0.703s0.688,0.246,1.076,0.246c0.293,0,0.563-0.04,0.811-0.122c0.247-0.08,0.476-0.2,0.688-0.356
		c0.212-0.155,0.427-0.358,0.644-0.607v0.16c0,0.297,0.073,0.525,0.218,0.687c0.145,0.159,0.328,0.239,0.549,0.239
		c0.227,0,0.41-0.078,0.552-0.231c0.143-0.154,0.213-0.386,0.213-0.694v-7.146c0-0.305-0.066-0.534-0.198-0.69
		C224.641,472.212,224.452,472.134,224.207,472.134 M223.141,478.975c-0.14,0.306-0.328,0.532-0.563,0.682
		c-0.236,0.148-0.496,0.223-0.781,0.223c-0.281,0-0.539-0.078-0.777-0.235c-0.238-0.155-0.424-0.388-0.561-0.696
		c-0.136-0.31-0.206-0.683-0.206-1.122c0-0.415,0.064-0.78,0.193-1.096c0.129-0.315,0.31-0.556,0.543-0.724s0.5-0.253,0.796-0.253
		c0.285,0,0.545,0.083,0.786,0.246c0.239,0.165,0.43,0.402,0.57,0.713s0.21,0.682,0.21,1.113
		C223.351,478.283,223.281,478.667,223.141,478.975"/>
	<path clip-path="url(#SVGID_34_)" fill="#FFFFFF" d="M233.586,474.937c-0.406-0.254-0.878-0.382-1.416-0.382
		c-0.467,0-0.859,0.085-1.175,0.252c-0.316,0.168-0.627,0.411-0.932,0.729v-2.477c0-0.297-0.068-0.523-0.202-0.686
		c-0.135-0.16-0.327-0.239-0.576-0.239c-0.237,0-0.423,0.084-0.556,0.252s-0.198,0.416-0.198,0.744v7.075
		c0,0.305,0.069,0.535,0.205,0.692c0.137,0.155,0.32,0.233,0.549,0.233c0.226,0,0.412-0.078,0.558-0.233
		c0.146-0.157,0.22-0.388,0.22-0.692v-0.16c0.176,0.206,0.321,0.36,0.43,0.463c0.109,0.104,0.241,0.203,0.395,0.3
		c0.154,0.098,0.341,0.176,0.56,0.234c0.22,0.06,0.454,0.089,0.704,0.089c0.408,0,0.781-0.082,1.119-0.246
		c0.337-0.164,0.626-0.397,0.863-0.698c0.238-0.3,0.419-0.655,0.543-1.064c0.125-0.41,0.188-0.859,0.188-1.35
		c0-0.665-0.112-1.241-0.337-1.725C234.305,475.563,233.991,475.193,233.586,474.937 M232.797,479.348
		c-0.295,0.354-0.646,0.531-1.054,0.531c-0.478,0-0.865-0.174-1.161-0.521c-0.294-0.346-0.441-0.841-0.441-1.486
		c0-0.44,0.068-0.818,0.208-1.136c0.138-0.319,0.328-0.563,0.57-0.73c0.239-0.168,0.515-0.253,0.824-0.253
		c0.301,0,0.565,0.085,0.789,0.253c0.226,0.168,0.4,0.406,0.522,0.716c0.124,0.308,0.184,0.677,0.184,1.104
		C233.238,478.486,233.091,478.994,232.797,479.348"/>
	<path clip-path="url(#SVGID_34_)" fill="#FFFFFF" d="M240.53,474.641c-0.112-0.065-0.229-0.097-0.354-0.097
		c-0.17,0-0.302,0.028-0.395,0.089c-0.092,0.058-0.181,0.173-0.264,0.344c-0.083,0.17-0.176,0.406-0.278,0.705l-1.3,3.71
		l-1.372-3.988c-0.091-0.277-0.195-0.489-0.314-0.638s-0.294-0.222-0.529-0.222c-0.133,0-0.264,0.034-0.388,0.106
		c-0.125,0.07-0.222,0.166-0.293,0.285c-0.072,0.117-0.108,0.246-0.108,0.385c0,0.131,0.061,0.341,0.184,0.629l1.995,5.021
		l-0.148,0.362c-0.111,0.265-0.209,0.466-0.294,0.601c-0.085,0.139-0.182,0.234-0.288,0.289c-0.105,0.056-0.253,0.084-0.439,0.084
		c-0.075,0-0.164-0.013-0.267-0.036c-0.083-0.025-0.168-0.036-0.256-0.036c-0.221,0-0.388,0.051-0.499,0.151
		c-0.115,0.101-0.171,0.244-0.171,0.431c0,0.272,0.119,0.461,0.357,0.564c0.236,0.103,0.593,0.153,1.067,0.153
		c0.487,0,0.874-0.073,1.161-0.222c0.288-0.148,0.518-0.362,0.691-0.639c0.174-0.278,0.353-0.659,0.536-1.146l2.112-5.531
		c0.051-0.143,0.095-0.283,0.129-0.421c0.037-0.14,0.062-0.246,0.079-0.32c0-0.124-0.033-0.24-0.093-0.351
		C240.729,474.794,240.642,474.705,240.53,474.641"/>
	<path clip-path="url(#SVGID_34_)" fill="#FFFFFF" d="M262.93,472.129c-0.533,0-0.954,0.068-1.261,0.204
		c-0.308,0.137-0.526,0.354-0.653,0.652c-0.13,0.301-0.191,0.702-0.191,1.211v0.486h-0.387c-0.543,0-0.814,0.192-0.814,0.582
		c0,0.175,0.065,0.315,0.196,0.424c0.132,0.111,0.315,0.164,0.56,0.164h0.445v4.294c0,0.318,0.074,0.563,0.228,0.729
		c0.154,0.17,0.344,0.254,0.572,0.254c0.243,0,0.439-0.084,0.59-0.254c0.155-0.167,0.23-0.411,0.23-0.729v-4.294h0.396
		c0.291,0,0.517-0.035,0.681-0.107c0.166-0.071,0.246-0.24,0.246-0.502c0-0.375-0.308-0.561-0.927-0.561h-0.396v-0.385
		c0-0.322,0.043-0.569,0.122-0.74c0.087-0.172,0.273-0.26,0.565-0.26c0.107,0,0.241,0.014,0.39,0.034
		c0.155,0.025,0.268,0.038,0.33,0.038c0.134,0,0.253-0.055,0.348-0.16c0.101-0.107,0.15-0.235,0.15-0.385
		C264.35,472.357,263.879,472.129,262.93,472.129"/>
	<path clip-path="url(#SVGID_34_)" fill="#FFFFFF" d="M268.089,474.795c-0.32-0.171-0.647-0.255-0.99-0.255
		c-0.342,0-0.61,0.084-0.818,0.255c-0.202,0.171-0.4,0.421-0.591,0.755c-0.015-0.334-0.08-0.584-0.2-0.755
		c-0.119-0.171-0.313-0.255-0.583-0.255c-0.525,0-0.788,0.364-0.788,1.093v4.514c0,0.323,0.078,0.568,0.226,0.733
		c0.149,0.168,0.341,0.25,0.578,0.25s0.433-0.081,0.586-0.247c0.15-0.163,0.234-0.41,0.234-0.736v-1.355
		c0-0.486,0.014-0.899,0.045-1.238c0.033-0.337,0.089-0.631,0.17-0.878c0.084-0.243,0.201-0.425,0.353-0.554
		c0.149-0.122,0.345-0.186,0.582-0.186c0.173,0,0.374,0.036,0.602,0.107c0.227,0.073,0.371,0.112,0.434,0.112
		c0.157,0,0.304-0.063,0.44-0.194c0.135-0.125,0.204-0.292,0.204-0.488C268.571,475.192,268.411,474.966,268.089,474.795"/>
	<path clip-path="url(#SVGID_34_)" fill="#FFFFFF" d="M274.176,478.052c0.233-0.12,0.351-0.385,0.351-0.791
		c0-0.44-0.112-0.87-0.339-1.296c-0.222-0.424-0.566-0.77-1.018-1.033c-0.453-0.27-0.997-0.403-1.63-0.403
		c-0.488,0-0.93,0.078-1.328,0.232c-0.402,0.157-0.735,0.381-1.007,0.675c-0.276,0.295-0.485,0.645-0.625,1.055
		c-0.145,0.41-0.218,0.854-0.218,1.333c0,1.017,0.293,1.823,0.87,2.418c0.576,0.593,1.385,0.889,2.428,0.889
		c0.454,0,0.858-0.061,1.208-0.179c0.349-0.117,0.64-0.269,0.874-0.446c0.231-0.182,0.404-0.368,0.521-0.566
		c0.11-0.194,0.167-0.365,0.167-0.512c0-0.167-0.048-0.294-0.152-0.386c-0.104-0.094-0.237-0.139-0.405-0.139
		c-0.152,0-0.271,0.038-0.355,0.108c-0.202,0.189-0.367,0.34-0.493,0.449c-0.128,0.113-0.264,0.218-0.415,0.313
		c-0.15,0.097-0.307,0.17-0.466,0.214c-0.159,0.048-0.336,0.068-0.531,0.068c-0.29,0-0.552-0.068-0.792-0.211
		c-0.24-0.146-0.431-0.357-0.578-0.637c-0.145-0.28-0.216-0.606-0.222-0.974h3.171C273.615,478.233,273.942,478.173,274.176,478.052
		 M270.021,477.313c0.055-0.546,0.214-0.957,0.472-1.236c0.261-0.28,0.592-0.418,0.995-0.418c0.426,0,0.763,0.136,1.024,0.412
		c0.262,0.274,0.407,0.688,0.447,1.242H270.021z"/>
	<path clip-path="url(#SVGID_34_)" fill="#FFFFFF" d="M280.915,478.052c0.232-0.12,0.353-0.385,0.353-0.791
		c0-0.44-0.116-0.87-0.341-1.296c-0.223-0.424-0.563-0.77-1.013-1.033c-0.46-0.27-1.003-0.403-1.634-0.403
		c-0.486,0-0.932,0.078-1.332,0.232c-0.398,0.157-0.734,0.381-1.007,0.675c-0.273,0.295-0.48,0.645-0.623,1.055
		c-0.144,0.41-0.218,0.854-0.218,1.333c0,1.017,0.292,1.823,0.869,2.418c0.58,0.593,1.387,0.889,2.429,0.889
		c0.454,0,0.86-0.061,1.209-0.179c0.348-0.117,0.641-0.269,0.873-0.446c0.233-0.182,0.407-0.368,0.519-0.566
		c0.115-0.194,0.17-0.365,0.17-0.512c0-0.167-0.047-0.294-0.15-0.386c-0.104-0.094-0.237-0.139-0.406-0.139
		c-0.151,0-0.271,0.038-0.355,0.108c-0.202,0.189-0.367,0.34-0.492,0.449c-0.127,0.113-0.264,0.218-0.415,0.313
		c-0.152,0.097-0.307,0.17-0.469,0.214c-0.157,0.048-0.335,0.068-0.527,0.068c-0.291,0-0.555-0.068-0.795-0.211
		c-0.238-0.146-0.431-0.357-0.575-0.637c-0.144-0.28-0.218-0.606-0.221-0.974h3.17C280.354,478.233,280.682,478.173,280.915,478.052
		 M276.763,477.313c0.051-0.546,0.21-0.957,0.469-1.236c0.258-0.28,0.592-0.418,0.994-0.418c0.426,0,0.765,0.136,1.027,0.412
		c0.257,0.274,0.407,0.688,0.446,1.242H276.763z"/>
	<path clip-path="url(#SVGID_34_)" fill="#FFFFFF" d="M286.927,474.937c-0.42-0.256-0.883-0.385-1.379-0.385
		c-0.415,0-0.79,0.089-1.114,0.266c-0.331,0.177-0.649,0.453-0.952,0.828v-0.194c0-0.296-0.071-0.52-0.218-0.678
		c-0.144-0.155-0.329-0.233-0.561-0.233s-0.418,0.078-0.552,0.228c-0.134,0.154-0.2,0.382-0.2,0.69v6.996
		c0,0.354,0.051,0.62,0.145,0.808c0.103,0.182,0.302,0.273,0.607,0.273c0.518,0,0.778-0.358,0.778-1.068v-2.433
		c0.286,0.357,0.586,0.634,0.9,0.815c0.313,0.188,0.704,0.28,1.166,0.28c0.385,0,0.741-0.077,1.079-0.228
		c0.334-0.152,0.622-0.372,0.868-0.653c0.245-0.283,0.44-0.632,0.579-1.05c0.141-0.418,0.212-0.878,0.212-1.376
		c0-0.677-0.123-1.261-0.367-1.758C287.675,475.571,287.347,475.195,286.927,474.937 M286.45,478.94
		c-0.137,0.312-0.32,0.546-0.552,0.704c-0.229,0.153-0.48,0.232-0.748,0.232c-0.454,0-0.828-0.179-1.133-0.536
		c-0.307-0.358-0.46-0.862-0.46-1.505c0-0.685,0.154-1.203,0.462-1.557c0.306-0.35,0.685-0.527,1.131-0.527
		c0.281,0,0.54,0.084,0.77,0.247s0.411,0.397,0.542,0.705c0.13,0.306,0.196,0.674,0.196,1.101
		C286.658,478.248,286.589,478.627,286.45,478.94"/>
	<path clip-path="url(#SVGID_34_)" fill="#FFFFFF" d="M289.899,474.54c-0.237,0-0.427,0.079-0.579,0.244
		c-0.146,0.163-0.222,0.402-0.222,0.722v4.642c0,0.313,0.076,0.555,0.222,0.729c0.152,0.17,0.342,0.254,0.579,0.254
		c0.239,0,0.433-0.082,0.589-0.25c0.154-0.165,0.231-0.41,0.231-0.732v-4.689c0-0.285-0.077-0.511-0.231-0.674
		C290.332,474.619,290.139,474.54,289.899,474.54"/>
	<path clip-path="url(#SVGID_34_)" fill="#FFFFFF" d="M289.917,472.199c-0.217,0-0.408,0.076-0.571,0.223
		c-0.166,0.149-0.247,0.339-0.247,0.568c0,0.253,0.081,0.446,0.242,0.586c0.158,0.138,0.35,0.209,0.576,0.209
		c0.22,0,0.408-0.071,0.566-0.21c0.157-0.14,0.236-0.335,0.236-0.585c0-0.257-0.082-0.454-0.244-0.591
		C290.314,472.267,290.13,472.199,289.917,472.199"/>
	<path clip-path="url(#SVGID_34_)" fill="#FFFFFF" d="M297.258,479.569l-1.662-2.613l0.861-0.789
		c0.438-0.396,0.658-0.714,0.658-0.953c0-0.19-0.068-0.353-0.2-0.481c-0.138-0.129-0.306-0.192-0.509-0.192
		c-0.17,0-0.313,0.043-0.432,0.13c-0.121,0.086-0.291,0.251-0.517,0.486l-1.822,1.913v-3.933c0-0.329-0.074-0.581-0.221-0.751
		c-0.147-0.171-0.346-0.257-0.592-0.257c-0.257,0-0.458,0.093-0.597,0.283c-0.136,0.188-0.207,0.462-0.207,0.82v6.914
		c0,0.323,0.073,0.568,0.215,0.733c0.141,0.168,0.339,0.25,0.589,0.25c0.212,0,0.405-0.084,0.565-0.254
		c0.164-0.167,0.247-0.406,0.247-0.719v-1.29l0.88-0.83l1.428,2.353c0.182,0.278,0.329,0.472,0.436,0.58
		c0.106,0.109,0.261,0.16,0.458,0.16c0.227,0,0.414-0.073,0.554-0.221c0.143-0.152,0.214-0.352,0.214-0.611
		c0-0.088-0.029-0.188-0.082-0.287C297.47,479.909,297.379,479.765,297.258,479.569"/>
	<path clip-path="url(#SVGID_34_)" fill="#FFFFFF" d="M299.45,479.343c-0.251,0-0.459,0.087-0.63,0.262
		c-0.171,0.173-0.257,0.382-0.257,0.622c0,0.287,0.091,0.51,0.268,0.665c0.18,0.159,0.39,0.238,0.634,0.238
		c0.237,0,0.444-0.079,0.624-0.241c0.175-0.157,0.264-0.38,0.264-0.662c0-0.243-0.089-0.454-0.264-0.626
		C299.909,479.43,299.698,479.343,299.45,479.343"/>
	<path clip-path="url(#SVGID_34_)" fill="#FFFFFF" d="M306.835,478.416c-0.166,0-0.308,0.055-0.422,0.156
		c-0.113,0.104-0.219,0.245-0.318,0.426c-0.177,0.311-0.381,0.539-0.616,0.69c-0.23,0.15-0.51,0.225-0.834,0.225
		c-0.24,0-0.463-0.045-0.666-0.141c-0.201-0.094-0.372-0.229-0.516-0.409s-0.252-0.397-0.325-0.652
		c-0.075-0.255-0.113-0.537-0.113-0.842c0-0.646,0.146-1.161,0.438-1.533c0.293-0.375,0.682-0.563,1.158-0.563
		c0.334,0,0.606,0.076,0.82,0.228c0.22,0.147,0.425,0.376,0.623,0.674c0.108,0.158,0.209,0.269,0.299,0.34
		c0.09,0.068,0.201,0.104,0.338,0.104c0.202,0,0.377-0.068,0.524-0.203c0.144-0.135,0.214-0.3,0.214-0.491s-0.063-0.397-0.192-0.617
		c-0.127-0.218-0.314-0.424-0.556-0.62c-0.245-0.192-0.54-0.352-0.891-0.475c-0.353-0.123-0.736-0.184-1.156-0.184
		c-0.674,0-1.26,0.139-1.748,0.419c-0.484,0.278-0.857,0.673-1.111,1.184c-0.26,0.51-0.387,1.097-0.387,1.764
		c0,0.981,0.281,1.765,0.84,2.35c0.563,0.582,1.345,0.876,2.349,0.876c0.469,0,0.895-0.065,1.27-0.191
		c0.376-0.126,0.687-0.295,0.934-0.503c0.248-0.207,0.434-0.425,0.554-0.656c0.121-0.229,0.182-0.444,0.182-0.646
		c0-0.169-0.067-0.331-0.198-0.48C307.198,478.493,307.033,478.416,306.835,478.416"/>
	<path clip-path="url(#SVGID_34_)" fill="#FFFFFF" d="M313.646,475.453c-0.288-0.291-0.628-0.518-1.026-0.675
		c-0.4-0.16-0.847-0.238-1.336-0.238c-0.482,0-0.924,0.078-1.326,0.233c-0.399,0.158-0.736,0.381-1.02,0.669
		c-0.28,0.288-0.498,0.638-0.649,1.045c-0.146,0.408-0.224,0.857-0.224,1.349c0,0.485,0.077,0.93,0.22,1.332
		c0.151,0.401,0.369,0.75,0.657,1.048c0.284,0.292,0.626,0.521,1.016,0.676c0.394,0.159,0.835,0.239,1.326,0.239
		c0.492,0,0.937-0.08,1.336-0.234c0.394-0.157,0.735-0.383,1.02-0.674c0.286-0.292,0.503-0.643,0.656-1.052
		c0.146-0.405,0.223-0.854,0.223-1.335c0-0.488-0.077-0.932-0.222-1.339C314.148,476.097,313.934,475.749,313.646,475.453
		 M312.455,479.368c-0.29,0.374-0.682,0.558-1.171,0.558c-0.324,0-0.604-0.086-0.847-0.253c-0.239-0.168-0.423-0.408-0.553-0.729
		c-0.129-0.316-0.193-0.684-0.193-1.108c0-0.428,0.066-0.803,0.197-1.124c0.13-0.321,0.314-0.563,0.556-0.728
		c0.242-0.163,0.521-0.245,0.84-0.245c0.489,0,0.881,0.182,1.171,0.555c0.29,0.367,0.436,0.881,0.436,1.542
		C312.891,478.486,312.745,478.998,312.455,479.368"/>
	<path clip-path="url(#SVGID_34_)" fill="#FFFFFF" d="M323.568,474.813c-0.319-0.173-0.704-0.262-1.146-0.262
		c-0.38,0-0.726,0.08-1.038,0.241c-0.313,0.16-0.606,0.407-0.882,0.736c-0.191-0.324-0.431-0.57-0.725-0.734
		c-0.292-0.162-0.641-0.243-1.048-0.243c-0.395,0-0.748,0.078-1.07,0.241c-0.32,0.155-0.62,0.402-0.903,0.736v-0.151
		c0-0.262-0.073-0.467-0.221-0.617c-0.15-0.145-0.335-0.221-0.558-0.221c-0.227,0-0.412,0.078-0.556,0.238
		c-0.139,0.157-0.21,0.39-0.21,0.694v4.636c0,0.337,0.077,0.592,0.236,0.765c0.155,0.17,0.356,0.258,0.604,0.258
		c0.248,0,0.448-0.088,0.603-0.258c0.149-0.173,0.227-0.428,0.227-0.765v-2.188c0-0.683,0.085-1.206,0.253-1.565
		c0.17-0.37,0.517-0.551,1.049-0.551c0.262,0,0.457,0.071,0.581,0.22c0.121,0.142,0.197,0.331,0.226,0.552
		c0.027,0.226,0.04,0.544,0.04,0.952v2.581c0,0.342,0.078,0.594,0.232,0.768c0.148,0.17,0.35,0.255,0.595,0.255
		c0.254,0,0.454-0.085,0.608-0.255c0.159-0.174,0.232-0.426,0.232-0.768v-2.153c0-0.694,0.063-1.178,0.178-1.452
		c0.108-0.209,0.26-0.384,0.451-0.508c0.19-0.125,0.395-0.191,0.608-0.191c0.264,0,0.463,0.071,0.596,0.214
		c0.128,0.143,0.209,0.319,0.238,0.53c0.028,0.209,0.044,0.486,0.044,0.836v2.725c0,0.337,0.078,0.592,0.234,0.765
		c0.157,0.17,0.356,0.258,0.604,0.258c0.251,0,0.457-0.085,0.61-0.255c0.154-0.174,0.229-0.426,0.229-0.768v-3.163
		c0-0.629-0.069-1.091-0.206-1.386C324.128,475.237,323.889,474.987,323.568,474.813"/>
	<path clip-path="url(#SVGID_34_)" fill="#FFFFFF" d="M245.273,477.443c-0.001-0.003-0.001-0.006-0.001-0.012
		C245.272,477.438,245.272,477.44,245.273,477.443"/>
	<path clip-path="url(#SVGID_34_)" fill="#FFFFFF" d="M245.355,477.962h0.001c-0.03-0.147-0.055-0.295-0.073-0.438
		C245.301,477.669,245.326,477.815,245.355,477.962"/>
	<path clip-path="url(#SVGID_34_)" fill="#FFFFFF" d="M245.891,479.466c-0.002-0.006-0.006-0.014-0.01-0.021
		C245.885,479.452,245.888,479.46,245.891,479.466"/>
	<path clip-path="url(#SVGID_34_)" fill="#FFFFFF" d="M245.84,479.364c-0.013-0.026-0.028-0.055-0.04-0.082
		C245.812,479.312,245.827,479.338,245.84,479.364"/>
	<path clip-path="url(#SVGID_34_)" fill="#FFFFFF" d="M245.505,478.542c0.08,0.249,0.175,0.491,0.287,0.723
		c-0.114-0.236-0.207-0.479-0.284-0.723H245.505z"/>
	<path clip-path="url(#SVGID_34_)" fill="#FFFFFF" d="M250.735,470.682l-0.075-0.26c0.3-0.063,0.523-0.329,0.523-0.646
		c0-0.364-0.297-0.659-0.66-0.659c-0.364,0-0.66,0.295-0.66,0.659c0,0.317,0.225,0.584,0.522,0.646l0.083,0.289
		c-1.021,0.141-1.833,0.539-1.833,0.539l0.144,0.44c0.617-0.205,1.154-0.332,1.641-0.383c0.475-0.051,0.833-0.073,1.125-0.073
		c0.313,0,0.545,0.025,0.811,0.069l0.074-0.477C252.43,470.827,251.697,470.603,250.735,470.682"/>
	<path clip-path="url(#SVGID_34_)" fill="#FFFFFF" d="M245.453,473.188c-0.017,0.023-0.497,0.465-0.874,1.279
		c-0.017-0.025-0.036-0.05-0.058-0.074c-0.113-0.124-0.271-0.188-0.474-0.184h-0.009c-0.126,0-0.21-0.042-0.266-0.093
		c0.056-0.07,0.089-0.16,0.089-0.258c0-0.23-0.187-0.419-0.419-0.419c-0.23,0-0.417,0.188-0.417,0.419
		c0,0.231,0.188,0.417,0.417,0.417c0.037,0,0.071-0.005,0.104-0.012c0.103,0.113,0.266,0.214,0.504,0.209
		c0.125-0.001,0.214,0.03,0.274,0.097c0.07,0.075,0.092,0.185,0.101,0.267c-0.001,0.002-0.001,0.004-0.003,0.004
		c-0.271,0.744-0.194,1.668-0.194,1.668l0.661,0.025c0.014-0.336,0.062-0.925,0.232-1.393c0.329-0.906,0.742-1.472,0.758-1.496
		l0.003-0.005c0.024-0.031,0.047-0.061,0.071-0.089l-0.195-0.142L245.453,473.188z"/>
	<path clip-path="url(#SVGID_34_)" fill="#FFFFFF" d="M257.294,471.787c-0.23,0-0.418,0.187-0.418,0.417
		c0,0.037,0.005,0.071,0.015,0.104c-0.115,0.104-0.215,0.268-0.211,0.507c0.003,0.123-0.031,0.214-0.097,0.272
		c-0.053,0.048-0.118,0.072-0.186,0.088c-0.491-0.688-1.097-1.109-1.097-1.109l-0.474,0.509c0.358,0.326,0.725,0.733,1.08,1.244
		c0.246,0.352,0.499,0.806,0.71,1.259l0.64-0.305c0,0-0.292-0.722-0.702-1.369c0.07-0.025,0.142-0.063,0.205-0.12
		c0.126-0.112,0.188-0.272,0.184-0.474c-0.002-0.13,0.041-0.218,0.093-0.275c0.07,0.054,0.16,0.089,0.258,0.089
		c0.231,0,0.418-0.188,0.418-0.419C257.712,471.974,257.525,471.787,257.294,471.787"/>
	<path clip-path="url(#SVGID_34_)" fill="#FFFFFF" d="M255.633,477.537c-0.88,0.429-2.33,0.996-4.236,1.262
		c-0.75,0.104-1.475,0.143-2.143,0.143c-0.869,0-1.639-0.065-2.226-0.14c-0.672-0.084-1.198-0.188-1.52-0.26
		c0.078,0.244,0.169,0.486,0.283,0.723c0.002,0.006,0.006,0.013,0.009,0.018c0.013,0.027,0.026,0.056,0.042,0.082
		c0.012,0.028,0.026,0.056,0.039,0.08c0.004,0.008,0.007,0.016,0.01,0.021c0.189,0.356,0.417,0.684,0.677,0.967
		c0.898,0.985,1.815,1.141,1.824,1.142l0.015,0.002l0.013,0.005c0.008,0.003,0.821,0.265,2.056,0.265
		c1.216,0,2.409-0.244,3.546-0.729c0.842-0.431,1.638-1.085,2.033-1.668c0.306-0.452,0.526-0.934,0.656-1.434
		c0.069-0.266,0.124-0.692,0.092-1.141C256.555,477.042,256.164,477.28,255.633,477.537"/>
	<path clip-path="url(#SVGID_34_)" fill="#FFFFFF" d="M252.322,471.655c-0.266-0.044-0.477-0.068-0.777-0.068
		c-0.28,0-0.626,0.022-1.089,0.07c-0.464,0.049-0.981,0.171-1.583,0.374c-0.842,0.281-1.603,0.724-2.204,1.279l-0.02,0.019
		c-0.09,0.081-0.274,0.254-0.488,0.525c-0.025,0.037-0.408,0.578-0.708,1.409c-0.227,0.62-0.216,1.525-0.216,1.536v0.001
		c0,0.213,0.012,0.423,0.036,0.631c0,0.006,0,0.009,0.001,0.012c0.001,0.028,0.006,0.053,0.01,0.081
		c0.018,0.143,0.043,0.29,0.074,0.438c0.437,0.11,3.047,0.72,5.966,0.313c1.829-0.254,3.219-0.795,4.061-1.204
		c0.701-0.34,1.151-0.647,1.325-0.773c-0.173-0.643-0.652-1.65-1.089-2.278C254.367,472.229,253.016,471.77,252.322,471.655
		 M248.68,476.914c-0.974,0-1.761-0.787-1.761-1.759c0-0.973,0.788-1.761,1.761-1.761c0.971,0,1.76,0.788,1.76,1.761
		C250.44,476.127,249.651,476.914,248.68,476.914 M253.828,475.617c-0.601,0-1.088-0.489-1.088-1.09c0-0.603,0.487-1.09,1.088-1.09
		c0.6,0,1.09,0.487,1.09,1.09C254.918,475.128,254.428,475.617,253.828,475.617"/>
</g>
<rect fill="none" width="500" height="500"/>
</svg>
