<svg id="Layer_1" enable-background="new 0 0 509.065 509.065" height="512" viewBox="0 0 509.065 509.065" width="512" xmlns="http://www.w3.org/2000/svg"><g><path d="m205.185 361.103v100.267c0 11.589 9.394 20.983 20.983 20.983 10.273 0 18.805-7.386 20.615-17.135l-34.806-102.362z"/><path d="m480.114 242.415h-58.162v-52.258h62.086c9.72 0 17.599-7.879 17.599-17.599v-121.27c0-9.72-7.879-17.599-17.599-17.599h-184.194c-9.72 0-17.599 7.879-17.599 17.599v121.27c0 9.72 7.879 17.599 17.599 17.599h62.086v28.856h-33.196c-7.301 0-13.219 5.918-13.219 13.219v10.182h-50.261c-9.695 2.934-79.361 23.935-88.935 26.821-11.791 2.632-23.767-3.053-29.298-13.514l-25.98-49.059 36.562 39.803c6.083 6.622 15.419 9.174 24.024 6.57l93.836-28.397c12.376-3.745 19.373-16.814 15.628-29.19s-16.814-19.373-29.19-15.627l-79.761 24.138-29.06-31.636 27.771 17.34 1.413-24.819c1.096-19.248-13.619-35.74-32.868-36.836l-33.433-1.904c-34.24-1.95-62.937 25.718-62.196 60.039l1.672 77.431-16.772-132.425c-1.32-10.425-10.551-18.278-21.016-17.329-10.987.996-18.869 10.886-17.495 21.738l27.247 215.148c1.227 9.684 9.465 16.945 19.227 16.945h57.462v82.7h-19.711c-3.427 0-6.713 1.361-9.136 3.784l-23.163 23.163c-5.03 5.03-5.409 13.281-.471 18.402 5.031 5.217 13.338 5.274 18.44.172l19.682-19.682h52.881l19.682 19.682c5.041 5.041 13.217 5.048 18.266.005 5.032-5.026 4.763-13.519-.266-18.548l-23.194-23.194c-2.423-2.423-5.709-3.784-9.136-3.784h-18.035v-82.7h57.66c11.405 0 20.422-9.858 19.282-21.322l16.488 4.257 44.409 130.605c4.997 14.694 20.957 22.549 35.645 17.555 14.69-4.995 22.55-20.953 17.555-35.644l-49.295-144.971c-3.048-8.965-10.407-15.792-19.576-18.159l-72.821-18.8 69.095 3.786c11.774.645 22.328 5.803 30.03 15.358h158.86v160.55c0 11.378 8.848 21.068 20.218 21.473 11.938.424 21.749-9.126 21.749-20.969v-161.054h.886c15.989 0 28.951-12.962 28.951-28.951-.002-15.989-12.964-28.95-28.953-28.95zm-48.731-139.49c-1.155-.736-1.892-2.312-1.892-4.098 0-5.706 6.667-9.125 9.142-7.145l26.688 17.337c2.416 1.576 3.257 4.098 3.257 5.884s-.841 4.308-3.257 5.884l-26.688 17.337c-.525.42-1.261.525-1.996.525-3.152 0-7.146-3.362-7.146-7.67 0-1.786.736-3.362 1.892-4.098l18.493-11.978zm-74.391 23.956c1.156.736 1.892 2.312 1.892 4.098 0 4.308-3.992 7.67-7.145 7.67-.735 0-1.472-.105-1.997-.525l-26.688-17.337c-2.417-1.576-3.258-4.098-3.258-5.884s.841-4.308 3.258-5.884l26.688-17.337c.525-.42 1.262-.525 1.997-.525 3.152 0 7.145 3.362 7.145 7.67 0 1.787-.735 3.362-1.892 4.098l-18.492 11.978zm23.929 29.304c-.735 1.576-2.731 2.627-4.729 2.627-3.572 0-5.884-2.942-5.884-5.569 0-1.725-1.206 1.855 37.405-77.753 2.284-4.852 10.612-2.457 10.612 2.942.002 2.219 1.502-2.464-37.404 77.753z"/><ellipse cx="147.177" cy="60.493" rx="51.675" ry="51.676" transform="matrix(.77 -.638 .638 .77 -4.743 107.83)"/></g></svg>